<svg width="1174" height="1220" viewBox="0 0 1174 1220" fill="none" xmlns="http://www.w3.org/2000/svg">
<g clip-path="url(#clip0_415_122)">
<path d="M689.083 137.419C702.236 139.59 714.374 143.556 725.497 149.318C726.925 150.056 728.542 150.349 730.347 150.196C730.918 150.147 731.458 149.912 731.887 149.525C732.316 149.136 732.61 148.617 732.728 148.043C732.896 147.191 732.888 145.336 732.706 142.479C732.208 134.669 730.863 127.361 728.671 120.554C723.848 105.626 719.896 94.032 716.814 85.7732C716.422 84.7228 715.848 83.6845 715.09 82.6583C715.021 82.563 714.981 82.4488 714.973 82.3314C714.966 82.2139 714.992 82.0971 715.048 81.9954C715.104 81.8927 715.187 81.8109 715.289 81.7575C715.39 81.7042 715.504 81.683 715.618 81.6958C725.263 82.6346 734.392 85.2109 743.005 89.4246C747.722 91.7325 750.757 94.1971 755.342 97.0551C757.993 98.7167 760.686 100.885 763.423 103.558C772.476 112.433 780.22 122.039 785.489 133.344C789.146 141.19 792.138 148.631 794.466 155.667C796.291 161.199 797.315 167.232 798.708 173.074C799.72 177.331 800.536 181.73 801.152 186.268C802.961 199.483 803.4 212.007 802.471 223.838C802.463 223.95 802.482 224.063 802.527 224.167C802.571 224.27 802.64 224.361 802.727 224.431C802.815 224.502 802.917 224.549 803.026 224.57C803.136 224.591 803.248 224.583 803.354 224.55L826.376 217.313C826.492 217.281 826.58 217.206 826.65 217.102C826.71 217 826.731 216.875 826.714 216.753C826.052 212.393 825.451 206.747 824.904 199.814C824.505 194.749 823.021 186.249 820.461 174.316C819.892 171.668 817.718 162.917 813.929 148.063C813.145 144.995 812.235 142.027 811.178 139.156C808.504 131.862 805.984 123.801 803.084 117.343C798.736 107.657 793.65 98.5707 787.826 90.0834C783.544 83.8312 778.755 78.158 773.459 73.0639C761.065 61.1435 747.183 52.2065 732.222 44.5009C728.705 42.6904 724.722 40.9924 720.273 39.4068C713.71 37.0723 709.624 35.6835 708.016 35.2396C692.987 31.0789 675.317 27.8501 655.007 25.5521C652.381 25.2541 650.061 25.11 648.048 25.119C641.781 25.135 633.857 25.0601 624.277 24.8961C607.799 24.6172 600.436 25.682 581.689 27.1232C563.877 28.4839 539.845 32.7611 529.74 34.247C529.172 34.3343 520.063 36.3583 502.413 40.3182C493.832 42.2406 484.799 44.5889 475.316 47.3641C455.012 53.3026 436.796 58.8349 420.667 63.9613C416.204 65.3778 411.521 67.0035 406.618 68.8403C395.223 73.1087 384.15 76.9924 371.79 82.0677C354.18 89.2992 343.516 93.6548 339.797 95.1347C329.088 99.4042 320.456 104.432 309.173 110.16C304.449 112.56 300.047 113.954 295.967 114.343C293.537 114.571 288.837 114.814 281.866 115.071C278.431 115.199 273.731 114.969 267.765 114.383C250.758 112.707 236.146 110.846 223.933 108.799C209.99 106.46 192.509 103.295 171.488 99.3038C169.895 98.9988 168.281 98.5974 166.646 98.1007C166.463 98.044 166.268 98.0326 166.079 98.0669C165.89 98.1011 165.713 98.1812 165.56 98.2986C165.408 98.4169 165.286 98.5698 165.204 98.7456C165.121 98.9215 165.081 99.1146 165.086 99.3096C165.341 111.207 170.266 119.672 178.857 128.641C183.172 133.146 189.177 136.44 193.823 139.951C196.507 141.983 200.105 144.192 204.619 146.578C212.561 150.784 217.001 153.087 217.941 153.487C224.473 156.282 235.472 160.245 250.941 165.377C264.461 169.867 278.095 172.728 291.103 173.699C292.414 173.797 293.659 174.058 294.836 174.48C294.928 174.511 295.011 174.565 295.077 174.637C295.143 174.709 295.19 174.797 295.214 174.893C295.237 174.988 295.237 175.088 295.212 175.182C295.187 175.277 295.139 175.363 295.072 175.434C292.064 178.635 287.284 182.872 280.731 188.143C279.317 189.286 270.217 196.112 253.433 208.62C245.147 214.796 235.922 221.451 225.758 228.581C198.488 247.699 182.191 259.067 176.866 262.682C175.324 263.735 173.405 264.747 171.113 265.717C171.01 265.755 170.925 265.83 170.873 265.927C170.821 266.024 170.804 266.137 170.827 266.246C170.851 266.355 170.912 266.451 170.999 266.518C171.086 266.585 171.195 266.618 171.304 266.611C174.039 266.517 176.659 266.178 179.167 265.594C183.123 264.675 199.927 260.659 229.58 253.546C247.462 249.252 272.596 242.35 285.033 239.158C295.246 236.539 303.514 234.128 309.837 231.924C315.59 229.909 319.822 227.998 322.53 226.188C331.392 220.253 337.279 216.578 340.191 215.163C346.46 212.122 352.716 209.013 358.959 205.837C358.999 205.814 359.044 205.795 359.095 205.783L366.263 204.209C366.44 204.17 366.623 204.173 366.798 204.222C366.972 204.27 367.133 204.361 367.266 204.486C367.399 204.612 367.5 204.768 367.56 204.942C367.621 205.115 367.638 205.302 367.612 205.484C367.167 208.551 365.116 210.876 362.075 215.634C360.656 217.858 358.964 220.066 357 222.257C348.07 232.239 342.231 238.493 339.479 241.014C334.805 245.305 328.152 250.401 319.519 256.299C313.728 260.254 306.403 264.281 297.544 268.379C286.102 273.668 276.959 277.644 270.113 280.31C251.84 287.409 232.657 293.632 212.565 298.976C191.701 304.527 163.899 311.121 129.16 318.76C121.507 320.445 114.252 321.828 107.392 322.909C91.756 325.388 81.9948 327.577 67.9111 329.294C58.3612 330.449 48.9682 332.881 39.3616 333.24C39.2718 333.242 39.1844 333.272 39.1119 333.326C39.0395 333.379 38.985 333.455 38.9554 333.542C38.9258 333.627 38.9231 333.721 38.9476 333.81C38.972 333.898 39.0217 333.977 39.0911 334.036C43.6421 337.926 48.3328 341.253 54.5106 342.833C61.0257 344.491 66.8675 346.802 73.2721 348.174C74.6442 348.466 80.4864 349.707 90.7989 351.897C98.5468 353.552 105.719 354.205 113.281 355.309C118.912 356.126 124.545 356.792 130.181 357.305C144.488 358.594 158.595 359.893 172.502 361.201C180.241 361.935 189.638 361.974 198.167 363.25C198.233 363.262 198.295 363.296 198.341 363.348C198.387 363.398 198.415 363.462 198.422 363.53C198.429 363.598 198.413 363.668 198.378 363.725C198.342 363.784 198.29 363.829 198.226 363.853C192.443 365.761 188.603 368.328 180.759 372.804C173.927 376.705 168.78 380.986 161.724 386.238C159.412 387.962 156.944 390.019 154.319 392.408C143.171 402.56 132.822 413.143 123.273 424.159C119.999 427.932 117.425 431.561 114.516 434.96C104.807 446.292 96.5501 459.683 89.8426 472.981C86.3023 480.008 84.3244 483.877 83.9097 484.588C81.4157 488.848 79.528 492.742 78.2446 496.27C78.1401 496.545 75.5037 502.617 70.3352 514.485C67.9965 519.856 66.0308 524.886 64.4383 529.577C62.9507 533.965 61.1661 539.071 59.0854 544.898C57.8935 548.226 55.762 556.329 52.6928 569.207C52.5874 569.638 52.4368 570.052 52.2423 570.444L51.0627 572.794C51.0287 572.857 51.0187 572.931 51.0338 573.002C51.0479 573.073 51.0873 573.137 51.1444 573.18C51.2005 573.225 51.2706 573.248 51.3421 573.245C51.4126 573.241 51.4807 573.213 51.5318 573.163C53.9463 571.062 55.5491 569.418 58.6452 567.258C75.9137 555.237 85.4634 548.61 87.2941 547.378C87.5825 547.184 87.8435 546.956 88.0703 546.698L90.0398 544.486C90.0753 544.446 90.1184 544.414 90.1661 544.391C90.2138 544.369 90.2662 544.357 90.3193 544.356C90.3724 544.355 90.4243 544.366 90.4741 544.386C90.523 544.407 90.5668 544.437 90.6047 544.476L90.7895 544.663C90.923 544.802 91.0027 544.985 91.0136 545.177C91.0245 545.37 90.967 545.56 90.8502 545.712C89.0266 548.124 87.3722 550.781 85.889 553.683C62.4522 599.447 41.481 640.297 22.9743 676.231C21.3744 679.334 19.6193 681.169 17.6704 683.782C17.6595 683.795 17.6553 683.813 17.6589 683.83C17.6614 683.849 17.6698 683.866 17.684 683.879L17.8459 684.052C17.8838 684.09 17.9296 684.121 17.9794 684.142C18.0292 684.162 18.083 684.173 18.1362 684.172C18.1902 684.17 18.2426 684.158 18.2913 684.136C18.34 684.113 18.384 684.08 18.4205 684.04C20.0661 682.118 21.9223 680.399 23.988 678.885C24.4264 678.566 25.9091 677.312 28.4381 675.123C125.774 590.84 225.86 504.32 328.693 415.562C330.333 414.151 332.187 413.162 333.784 412.582C333.908 412.537 334.012 412.448 334.078 412.332C334.144 412.217 334.168 412.081 334.144 411.949C334.12 411.816 334.052 411.697 333.952 411.61C333.85 411.523 333.722 411.475 333.59 411.475C333.112 411.473 331.63 411.795 329.145 412.441C327.912 412.762 326.376 413.01 324.536 413.185C304.284 415.12 292.224 416.244 288.357 416.56C286.656 416.701 285.015 416.539 283.434 416.075C283.332 416.044 283.239 415.985 283.167 415.905C283.095 415.824 283.045 415.725 283.024 415.62C283.003 415.514 283.012 415.405 283.048 415.305C283.085 415.204 283.148 415.117 283.232 415.052C289.203 410.282 296.109 405.067 303.081 400.727C313.505 394.22 322.946 387.999 334.731 381.324C362.183 365.786 377.397 357.16 380.375 355.446C412.554 336.974 433.919 326.17 473.744 304.872C476.053 303.638 478.223 302.115 480.475 301.209C483.9 299.818 487.897 296.757 490.979 295.502C492.967 294.696 494.797 293.744 496.468 292.646C498.791 291.129 501.547 289.699 504.736 288.357C505.43 288.063 506.087 287.688 506.697 287.24C509.465 285.187 512.514 283.552 515.847 282.337C515.948 282.301 516.04 282.24 516.115 282.162C516.189 282.084 516.244 281.989 516.276 281.885C516.308 281.781 516.316 281.67 516.3 281.562C516.282 281.454 516.241 281.351 516.179 281.262C514.372 278.704 513.793 276.236 513.036 273.295C511.474 267.296 510.713 262.233 510.754 258.104C510.78 255.282 511.504 249.521 512.928 240.822C513.533 237.126 514.522 233.621 515.898 230.307C518.25 224.617 519.664 221.243 520.139 220.186C522.067 215.891 523.436 213.284 524.243 212.367C525.873 210.509 528.385 207.879 531.78 204.473C535.98 200.267 541.853 198.6 548.154 196.21C551.366 194.991 554.484 194.234 557.507 193.94C562.823 193.425 567.201 193.259 570.639 193.442C574.712 193.662 582.653 194.368 587.959 195.8C597.874 198.474 605.905 201.235 612.052 204.086C619.96 207.756 624.48 210.995 631.365 215.558C633.752 217.144 636.418 219.362 639.364 222.214C646.982 229.571 654.668 236.859 662.417 244.077C668.573 249.807 672.64 253.213 674.617 254.294C679.426 256.93 684.701 258.303 690.441 258.411C692.845 258.454 694.818 257.878 696.359 256.684C698.863 254.743 700.385 252.517 700.924 250.006C702.399 243.137 703.271 237.976 702.942 231.131C702.266 216.858 701.101 204.32 699.445 193.517C698.046 184.393 695.695 170.746 692.391 152.576C691.43 147.265 690.608 143.267 689.925 140.582C689.686 139.618 688.919 138.563 688.714 137.855C688.698 137.8 688.696 137.742 688.707 137.686C688.719 137.629 688.744 137.577 688.782 137.534C688.818 137.49 688.865 137.457 688.918 137.437C688.97 137.416 689.027 137.411 689.083 137.419Z" stroke="#808080" stroke-width="5"/>
<path d="M607.141 314.559C607.169 314.664 607.223 314.759 607.299 314.836C607.374 314.913 607.468 314.968 607.57 314.997C607.673 315.026 607.781 315.026 607.884 315C607.987 314.973 608.081 314.918 608.156 314.843L654.785 268.16C655.135 267.809 655.342 267.337 655.366 266.836C655.39 266.334 655.227 265.841 654.912 265.455C650.222 259.675 647.083 255.14 642.38 250.074C635.593 242.758 628.252 236.306 620.354 230.719C603.508 218.804 579.107 211.172 558.94 217.808C554.349 219.324 550.584 221.97 547.646 225.747C542.649 232.168 539.033 240.311 539.163 248.482C539.164 248.586 539.187 248.69 539.231 248.784C539.276 248.878 539.339 248.963 539.419 249.029C539.498 249.097 539.59 249.145 539.689 249.173C539.788 249.2 539.892 249.205 539.993 249.186C544.131 248.466 548.933 247.657 554.4 246.761C559.453 245.934 564.27 246.651 568.853 248.912C578.953 253.889 574.909 269.958 572.886 278.149C572.516 279.669 572.36 281.976 572.439 283.101C572.696 286.876 577.118 284.731 579.813 283.806C596.662 278.067 604.093 303.267 607.141 314.559Z" stroke="#808080" stroke-width="5"/>
<path d="M545.787 384.387L538.852 390.004C538.378 390.385 537.943 390.813 537.556 391.279C532.194 397.747 527.23 403.404 522.667 408.248C513.216 418.294 486.148 446.895 441.464 494.052C440.48 495.088 438.799 497.299 436.421 500.687C436.382 500.741 436.325 500.778 436.261 500.793C436.197 500.807 436.13 500.796 436.072 500.764L436.046 500.74C435.995 500.711 435.958 500.663 435.94 500.605C435.922 500.549 435.925 500.486 435.95 500.43C437.129 497.837 438.159 495.848 439 493.137C441.958 483.578 444.888 473.784 449.219 465.595C452.804 458.817 456.559 450.185 461.12 443.051C463.682 439.051 470.62 426.525 477.267 417.689C479.228 415.08 480.931 412.66 482.375 410.43C485.825 405.1 490.01 399.5 494.929 393.629C502.744 384.288 509.721 375.379 519.686 363.952C523.585 359.486 526.47 355.789 529.091 354.326C529.228 354.249 529.336 354.128 529.397 353.983C529.459 353.837 529.471 353.675 529.43 353.523C527.924 347.952 525.279 343.244 523.109 338.124C515.448 320.108 511.615 311.09 511.611 311.072C511.61 310.994 511.594 310.918 511.562 310.849C511.529 310.78 511.482 310.718 511.423 310.667C511.364 310.617 511.296 310.58 511.222 310.56C511.148 310.539 511.07 310.534 510.994 310.547C510.134 310.691 508.775 311.91 507.755 312.326C502.524 314.46 494.357 316.941 487.853 320.081C478.496 324.591 469.322 328.791 459.9 333.844C437.798 345.692 418.741 355.495 397.742 367.737C366.48 385.966 349.933 395.505 348.101 396.353C347.959 396.419 347.835 396.521 347.743 396.649C347.651 396.777 347.593 396.928 347.574 397.085C347.555 397.243 347.577 397.404 347.637 397.552C347.696 397.699 347.791 397.829 347.913 397.929L348.51 398.408C348.564 398.447 348.632 398.47 348.704 398.472L386.957 399.107C387.029 399.108 387.099 399.127 387.162 399.162C387.226 399.196 387.28 399.246 387.321 399.306C387.361 399.367 387.386 399.437 387.394 399.509C387.403 399.582 387.393 399.656 387.368 399.723C387.259 400.007 387.048 400.279 386.734 400.54C360.419 421.938 339.661 439.008 324.459 451.75C308.699 464.955 296.85 475.838 281.43 489.495C270.366 499.288 259.902 509.056 250.038 518.799C235.459 533.199 218.24 549.197 203.993 564.335C191.247 577.868 182.242 587.358 176.977 592.802C156.284 614.214 137.304 637.003 118.986 660.82C112.481 669.268 107.342 677.607 102.131 684.568C95.2925 693.716 88.0988 706.214 81.8116 716.146C76.3617 724.756 72.3414 733.678 66.9774 744.484C62.9016 752.701 60.2711 761.894 57.4525 769.362C55.253 775.191 53.403 781.586 51.9017 788.55C50.0061 797.419 47.755 805.252 46.7477 814.213C46.5561 815.908 46.0545 819.388 45.241 824.652C43.5065 835.981 43.2039 845.146 42.3935 857.559C41.9319 864.831 42.4875 871.385 42.2878 878.584C42.1611 883.303 42.4467 888.533 43.1464 894.285C47.0141 925.912 50.1914 948.036 57.7618 972.83C59.7239 979.274 62.913 989.319 67.3297 1002.98C69.0527 1008.32 70.7324 1012.81 72.3678 1016.45C76.6936 1026.1 79.0046 1031.27 80.9627 1038.51C80.978 1038.57 81.0138 1038.62 81.0632 1038.66C81.1127 1038.7 81.1733 1038.71 81.2333 1038.7C81.2931 1038.7 81.3489 1038.67 81.3901 1038.63C81.4315 1038.58 81.4548 1038.52 81.4568 1038.47C81.7322 1033.49 81.7504 1028.12 81.5115 1022.34C81.2697 1016.62 81.256 1011.25 81.4702 1006.24C82.3626 985.629 83.1365 972.43 83.7896 966.655C85.0296 955.704 86.2275 947.35 87.3821 941.594C90.4729 926.141 92.5108 915.786 93.4981 910.521C95.4846 899.972 98.188 892.316 101.112 880.853C102.85 874.042 105.096 866.735 107.854 858.924C112.823 844.844 117.66 831.905 122.365 820.099C126.046 810.847 128.597 806.322 133.324 796.556C133.373 796.45 133.461 796.369 133.57 796.329C133.678 796.289 133.799 796.292 133.906 796.34L133.919 796.347C134.029 796.395 134.117 796.486 134.163 796.599C134.21 796.712 134.212 796.839 134.168 796.952C133.544 798.614 133.212 799.699 133.173 800.209C132.524 808.905 131.876 816.277 131.229 822.326C129.782 836.028 129.822 847.012 129.039 861.83C128.763 867.128 128.831 872.674 129.243 878.469C129.774 886.021 129.851 897.84 131.366 907.466C133.019 918.024 134.11 927.826 136.178 938.005C139.087 952.329 142.65 966.065 146.865 979.211C148.696 984.897 150.553 989.808 152.438 993.953C155.341 1000.35 159.02 1009.65 163.171 1017.02C167.188 1024.14 170.158 1031.02 174.797 1037.99C180.691 1046.88 184.398 1052.33 185.918 1054.34C191.713 1062.02 198.092 1069.81 205.054 1077.7C212.197 1085.8 219.365 1092.87 226.558 1098.93C232.403 1103.86 238.809 1109.08 245.776 1114.61C251.133 1118.85 257.92 1123.48 266.137 1128.48C275.789 1134.35 283.31 1138.7 288.701 1141.56C295.281 1145.03 299.64 1147.36 301.777 1148.52C306.507 1151.08 310.84 1153.09 314.777 1154.56C317.787 1155.69 324.664 1158.51 335.409 1163.05C342.743 1166.14 349.715 1168.7 356.324 1170.75C366.72 1173.94 374.237 1176.3 378.877 1177.83C388.693 1181.05 400.162 1182.99 410.438 1185.42C416.958 1186.96 424.927 1188.54 434.344 1190.13C455.401 1193.69 475.307 1196.62 495.985 1197.4C501.973 1197.63 510.836 1198.07 522.572 1198.72C522.669 1198.72 522.766 1198.71 522.851 1198.66C522.937 1198.61 523.009 1198.55 523.06 1198.46C523.11 1198.37 523.137 1198.28 523.138 1198.18C523.139 1198.08 523.114 1197.98 523.065 1197.9C522.89 1197.59 522.532 1197.39 521.992 1197.29C520.075 1196.97 518.588 1196.63 517.534 1196.28C515.02 1195.44 508.254 1193.25 497.235 1189.71C484.857 1185.74 471.178 1179.51 460.273 1175.22C459.303 1174.84 456.457 1173.17 451.736 1170.21C445.693 1166.44 438.759 1162.37 434.574 1159.95C427.439 1155.86 420.088 1148.98 415.076 1145.36C407.329 1139.77 403.409 1134.72 394.912 1125.93C388.448 1119.25 384.789 1113.41 378.584 1104.88C375.41 1100.52 373.034 1096.66 371.456 1093.3C368.3 1086.6 363.17 1078.28 360.403 1070.34C359.055 1066.5 357.665 1062.81 356.232 1059.26C352.239 1049.42 350.745 1041.12 347.2 1026.77C346.914 1025.61 345.779 1018.86 343.795 1006.52C342.696 999.68 341.978 992.871 341.641 986.088C340.604 964.935 340.221 948.865 340.492 937.886C340.724 928.478 341.434 914.919 342.624 897.22C344.417 870.516 348.36 844.939 351.708 817.968C353.013 807.514 355.57 797.377 357.361 787.846C358.737 780.535 360.543 773.1 362.779 765.542C365.887 755.024 368.579 744.063 372.378 734.082C374.79 727.748 377.14 721.403 379.428 715.047C381.179 710.168 383.813 703.951 387.329 696.398C394.902 680.095 399.341 670.575 400.648 667.839C407.08 654.381 412.464 643.866 416.799 636.297C421.861 627.46 432.241 610.103 447.936 584.228C454.181 573.931 459.662 566.651 465.139 557.589C468.445 552.132 472.929 545.597 478.591 537.981C486.409 527.444 503.896 502.232 515.024 488.47C524.223 477.083 536.168 461.598 547.175 448.555C556.753 437.216 561.58 431.84 565.228 427.001C566.511 425.304 567.784 423.934 569.045 422.89C569.192 422.769 569.285 422.595 569.304 422.404C569.324 422.214 569.269 422.022 569.15 421.871L568.888 421.532C568.78 421.395 568.624 421.308 568.455 421.287C568.286 421.266 568.117 421.315 567.986 421.422C564.413 424.348 561.509 426.359 558.961 428.684C555.352 431.974 549.624 437.031 541.777 443.855C539.704 445.661 534.587 450.774 526.425 459.196C524.244 461.448 522.22 463.667 520.354 465.854C515.53 471.523 510.072 477.602 505.774 482.987C497.679 493.128 490.935 501.479 485.542 508.042C479.502 515.388 473.033 523.965 466.135 533.773C451.708 554.289 444.178 564.973 443.548 565.826C440.27 570.309 436.44 576.863 433.38 581.141C421.62 597.589 410.153 615.089 398.978 633.639C394.075 641.775 387.369 653.098 378.862 667.607C378.751 667.799 378.574 667.941 378.365 668.008C378.157 668.075 377.93 668.062 377.729 667.971L377.696 667.958C377.498 667.869 377.343 667.703 377.262 667.498C377.182 667.293 377.183 667.064 377.266 666.861C387.791 640.909 400.783 609.028 416.24 571.213C418.293 566.191 420.429 561.419 422.646 556.896C426.09 549.853 428.567 545.256 430.077 543.104C433.409 538.344 437.103 532.798 441.16 526.466C444.138 521.829 447.92 516.342 452.506 510.006C457.057 503.713 465.071 492.511 476.549 476.396C484.66 465.003 492.515 454.349 500.115 444.433C507.555 434.728 515.595 424.206 524.236 412.869C530.415 404.767 533.602 400.576 533.799 400.298C534.346 399.533 538.368 394.257 545.867 384.469C545.874 384.457 545.877 384.444 545.875 384.431C545.874 384.418 545.868 384.406 545.859 384.396C545.849 384.387 545.838 384.381 545.824 384.379C545.812 384.378 545.798 384.38 545.787 384.387Z" stroke="#808080" stroke-width="5"/>
<path d="M982.743 303.798C982.715 303.784 981.876 303.702 980.228 303.554C980.036 303.532 979.239 303.3 977.828 302.856C965.601 299.016 950.352 294.157 932.081 288.279C931.591 288.124 931.152 287.855 930.782 287.493C930.422 287.133 930.141 286.689 929.976 286.201C928.153 280.901 926.277 276.387 922.131 271.93C916.878 266.292 910.977 262.246 904.449 259.79C898.18 257.43 889.12 255.111 881.176 255.054C878.271 255.03 875.254 254.762 872.136 254.249C872.021 254.227 871.895 254.239 871.778 254.284C871.662 254.329 871.564 254.405 871.485 254.505C871.415 254.603 871.365 254.721 871.353 254.845C871.341 254.97 871.358 255.095 871.414 255.21C871.692 255.843 871.982 256.3 872.286 256.581C875.59 259.56 879.295 263.339 883.4 267.92C890.872 276.246 897.422 283.787 903.041 290.542C904.335 292.104 905.81 294.282 907.457 297.08C907.626 297.366 907.726 297.685 907.768 298.015C907.81 298.346 907.775 298.68 907.682 298.999C906.031 304.24 900.812 305.661 895.844 306.506C892.639 307.055 889.396 307.517 886.127 307.893C885.836 307.927 885.548 307.874 885.28 307.741C885.012 307.608 884.784 307.4 884.635 307.143C881.048 301.19 876.546 297.704 870.308 293.656C863.888 289.474 856.495 288.877 847.361 288.509C844.1 288.376 840.687 288.669 837.131 289.388C830.717 290.681 826.559 291.589 824.667 292.109C819.253 293.6 815.591 294.83 813.681 295.798C807.416 298.974 800.495 302.865 792.929 307.472C792.77 307.567 792.588 307.616 792.403 307.614C792.218 307.611 792.037 307.558 791.879 307.459C791.721 307.359 791.594 307.218 791.508 307.049C791.423 306.882 791.385 306.694 791.397 306.506C792.002 298.625 792.338 293.035 792.405 289.738C792.481 285.856 792.607 283.363 792.784 282.26C793.187 279.701 793.404 277.214 793.436 274.795C793.45 273.242 794.292 270.936 794.44 269.157C794.453 268.979 794.432 268.801 794.377 268.633C794.323 268.465 794.236 268.312 794.124 268.185C794.01 268.057 793.874 267.958 793.724 267.894C793.573 267.829 793.413 267.802 793.252 267.812C793.01 267.825 792.778 267.903 792.554 268.046C792.394 268.147 792.266 268.344 792.173 268.637C790.364 274.301 788.041 279.667 785.203 284.736C778.881 296.054 772.765 308.608 768.288 317.695C766.802 320.698 763.621 325.329 762.635 328.705C762.578 328.895 762.57 329.096 762.611 329.291C762.651 329.485 762.741 329.666 762.869 329.817C762.999 329.967 763.163 330.082 763.347 330.15C763.531 330.218 763.728 330.238 763.921 330.207C764.893 330.059 765.769 329.889 766.549 329.694C773.34 328.015 779.444 326.571 784.86 325.363C790.394 324.136 797.331 321.79 803.43 320.594C812.92 318.724 824.239 314.77 833.732 312.465C840.733 310.768 847.132 311.342 852.939 314.189C860.2 317.749 865.076 320.304 867.576 321.856C871.804 324.481 877.219 328.656 883.813 334.377C884.108 334.631 884.452 334.809 884.817 334.897C888.718 335.86 892.156 335.287 896.22 332.682C897.616 331.795 900.935 329.827 906.194 326.775C909.053 325.117 913.139 322.372 918.461 318.541C925.906 313.184 933.434 311.702 944.774 309.189C951.879 307.613 959.314 306.48 967.078 305.789C971.913 305.354 976.8 303.637 981.84 304.611C982.119 304.663 982.42 304.594 982.751 304.403C982.8 304.373 982.849 304.329 982.879 304.276C982.909 304.222 982.92 304.161 982.921 304.099C982.922 304.037 982.904 303.977 982.876 303.924C982.838 303.871 982.791 303.827 982.743 303.798Z" stroke="#808080" stroke-width="5"/>
<path d="M563.925 339.022C563.827 339.512 564.335 341.046 564.358 342.104C564.785 361.592 565.02 377.028 565.062 388.415C565.078 392.773 565.118 395.578 565.183 396.832C565.19 396.987 565.234 397.138 565.311 397.275C565.386 397.41 565.492 397.526 565.62 397.612C565.748 397.699 565.895 397.754 566.047 397.772C566.198 397.79 566.353 397.773 566.496 397.719C566.574 397.687 566.733 397.526 566.973 397.236C569.543 394.074 572.475 389.322 575.478 385.496C581.945 377.22 587.585 369.153 592.4 361.296C592.811 360.626 593.073 359.916 593.185 359.165C593.205 359.048 593.199 358.928 593.169 358.814C593.138 358.699 593.082 358.592 593.006 358.501C592.931 358.409 592.837 358.337 592.73 358.286C592.624 358.236 592.509 358.209 592.392 358.209C586.613 358.161 582.402 354.399 577.206 350.154C575.961 349.141 572.787 345.965 567.683 340.628C567.112 340.033 566.091 339.379 564.622 338.666C564.553 338.631 564.478 338.615 564.403 338.615C564.328 338.616 564.253 338.634 564.186 338.668C564.118 338.702 564.06 338.752 564.014 338.813C563.969 338.875 563.939 338.946 563.925 339.022Z" stroke="#808080" stroke-width="5"/>
<path d="M1101.68 1128.76C1100.92 1123.69 1101.84 1119.29 1101.66 1113.78C1101.4 1105.56 1101.23 1096.85 1101.15 1087.64C1101.13 1085.27 1101 1082.89 1100.75 1080.52C1099.35 1066.63 1098.56 1058.46 1098.36 1055.97C1097.7 1047.6 1096.68 1039.45 1095.27 1031.52C1093.89 1023.75 1092.77 1017 1091.91 1011.29C1090.1 999.193 1085.61 984.607 1082.86 973.911C1079.83 962.25 1074.27 947.45 1071.14 937.474C1069.58 932.53 1067.55 927.2 1065.06 921.453C1064.51 920.173 1062.33 914.897 1058.51 905.607C1054.05 894.753 1048.6 884.24 1043.54 873.579C1039.85 865.813 1035.36 858.187 1031.24 850.52C1028.11 844.693 1024.75 839.107 1021.18 833.759C1013.99 823.011 1007.9 813.858 1002.9 806.301C992.982 791.351 984.479 781.366 970.999 764.33C963.925 755.398 956.675 748.11 948.591 739.46C941.917 732.323 935.131 726.064 928.463 719.146C924.485 715.014 921.635 712.513 922.597 707.472C923.302 703.781 926.459 702.197 929.75 700.708C932.398 699.499 937.737 696.296 941.437 696.134C946.577 695.917 950.547 697.853 955.805 700.077C957.721 700.895 959.975 702.174 962.559 703.914C979.14 715.025 988.738 723.237 1006.96 738.253C1013.03 743.261 1018.52 747.261 1023.57 751.582C1024.31 752.211 1025.14 752.719 1026.02 753.088C1032.68 755.854 1039.48 757.745 1046.44 757.72C1051.54 757.696 1055.75 758.289 1061.11 757.257C1068.57 755.834 1075.03 755.104 1079.33 751.137C1082.8 747.934 1087.38 742.183 1092.01 738.942C1098.96 734.08 1106.56 731.023 1114.97 729.262C1115.59 729.125 1116.68 728.346 1118.24 726.924C1118.41 726.771 1118.54 726.584 1118.63 726.375C1118.73 726.166 1118.77 725.939 1118.78 725.708C1118.84 720.298 1118.66 716.936 1118.23 715.625C1116.98 711.745 1116 708.36 1115.3 705.468C1115.2 705.057 1114.96 704.698 1114.6 704.468C1107.61 699.834 1100.18 696.084 1092.29 693.216C1084.39 690.334 1074.03 689.626 1065.97 690.195C1057.61 690.788 1052.96 690.69 1046.72 692.6C1040.72 694.44 1034.16 695.873 1028.74 699.362C1028.02 699.815 1027.38 700.371 1026.83 701.012C1022.49 706.012 1017.97 713.814 1010.19 708.875C1008.45 707.77 998.233 701.49 979.535 690.031C976.242 688.007 973.477 685.615 970.596 683.784C968.258 682.293 966.167 680.545 964.331 678.537C959.014 672.714 954.83 666.108 951.801 658.722C949.953 654.232 948.619 648.597 947.779 641.816C946.949 635.009 946.429 629.199 946.238 624.386C946.24 624.299 946.212 624.214 946.175 624.137C946.128 624.06 946.071 623.993 946.005 623.941C945.938 623.889 945.852 623.854 945.775 623.837C945.689 623.821 945.602 623.824 945.514 623.847C940.672 625.215 935.444 626.063 930.107 625.479C921.504 624.519 913.745 621.796 906.839 617.311C902.518 614.509 898.142 612.077 894.469 608.697C886.98 601.806 880.428 594.869 874.804 587.885C874.7 587.757 874.567 587.665 874.413 587.619C874.259 587.573 874.095 587.575 873.95 587.626C873.794 587.677 873.657 587.774 873.568 587.904C873.469 588.034 873.408 588.191 873.405 588.355C873.258 591.617 873.285 595.365 873.468 599.6C873.853 608.497 872.15 617.612 866.603 624.23C862.813 628.745 857.795 631.777 851.53 633.324C845.722 634.762 837.944 636.69 831.536 636.11C827.382 635.726 821.721 635.974 817.029 635.49C815.854 635.367 803.037 634.172 778.588 631.906C775.236 631.593 769.231 630.538 760.573 628.738C749.657 626.456 741.417 620.64 732.951 614.223C731.024 612.758 729.097 610.714 727.169 608.088C722.326 601.503 718.337 594.027 715.202 585.659C714.147 582.836 713.313 580 712.702 577.147C710.312 565.985 709.478 554.565 708.2 541.708C707.284 532.487 710.333 525.509 713.948 515.351C718.096 503.723 723.891 495.544 731.057 484.663C734.053 480.102 737.587 475.193 741.658 469.938C749.985 459.181 756.936 450.339 762.51 443.412C763.345 442.365 764.389 441.8 765.003 440.907C765.096 440.771 765.16 440.617 765.193 440.453C765.225 440.291 765.224 440.122 765.19 439.96C765.156 439.796 765.09 439.642 764.996 439.505C764.902 439.369 764.782 439.252 764.642 439.164C745.044 426.764 724.254 413.32 702.271 398.833C701.455 398.294 700.734 397.498 700.109 396.445C700.081 396.387 700.042 396.335 699.994 396.292C699.947 396.249 699.891 396.216 699.831 396.195C699.771 396.173 699.707 396.164 699.643 396.168C699.581 396.172 699.519 396.189 699.461 396.217C699.404 396.245 699.353 396.285 699.311 396.332C699.269 396.381 699.237 396.438 699.216 396.498C699.196 396.559 699.188 396.624 699.192 396.689C699.196 396.753 699.213 396.816 699.24 396.874L700.666 400.51C700.672 400.535 700.678 400.56 700.684 400.586C701.933 405.582 706.456 423.862 714.257 455.428C714.556 456.64 715.329 458.199 715.638 459.409C715.673 459.553 715.66 459.705 715.6 459.841C715.54 459.977 715.436 460.089 715.307 460.16C710.122 462.88 705.573 466.728 700.837 469.974C697.695 472.127 694.25 474.975 690.497 478.516C683.986 484.655 679.447 489.119 676.881 491.906C674.188 494.825 670.469 499.28 665.724 505.269C658.091 514.916 652.089 524.66 647.719 534.5C646.919 536.306 645.648 538.861 643.905 542.165C641.043 547.567 638.816 554.047 636.626 558.745C635.799 560.525 634.759 563.532 633.506 567.767C632.942 569.669 630.553 578.019 626.34 592.817C625.04 597.374 624.082 602.163 623.467 607.184C622.471 615.353 620.309 625.837 619.727 635.553C618.643 653.756 618.576 669.009 619.528 681.309C619.686 683.343 618.775 684.66 616.795 685.262C604.366 689.048 592.346 693.648 580.737 699.059C577.003 700.8 574.376 703.558 572.857 707.332C571.342 711.102 575.556 713.507 578.731 715.693C582.96 718.589 587.034 720.709 590.954 722.055C600.885 725.461 613.545 729.277 628.935 733.503C646.152 738.226 668.7 742.714 683.327 746.29C692.597 748.551 700.198 751.235 706.129 754.341C708.581 755.621 714.113 758.641 722.728 763.401C726.695 765.586 730.6 768.11 734.444 770.974C742.481 776.941 746.114 779.328 751.379 784.254C752.576 785.373 757.087 789.704 764.912 797.248C773.25 805.277 779.188 812.406 786.664 820.488C788.783 822.782 791.593 826.12 795.094 830.5C814.171 854.404 831.302 879.143 846.487 904.699C846.815 905.248 853.44 916.569 866.363 938.67C872.997 950.02 877.806 958.796 880.791 964.978C887.196 978.253 894.687 992.352 900.996 1006.68C903.22 1011.71 905.406 1016.68 907.564 1021.61C910.009 1027.21 912.534 1032.66 915.139 1037.98C915.446 1038.62 915.823 1039.09 916.242 1039.39C916.318 1039.45 916.405 1039.48 916.501 1039.49C916.588 1039.49 916.685 1039.46 916.763 1039.41C916.841 1039.36 916.901 1039.29 916.941 1039.2C916.971 1039.12 916.983 1039.02 916.975 1038.92C916.151 1034.42 916.464 1030.01 916.392 1025.55C915.706 983.272 915.281 950.876 915.118 928.372C915.07 922.584 914.621 919.221 914.972 914.836C915.278 910.79 914.622 907.133 914.809 903.307C914.945 900.614 914.941 897.182 914.815 893.031C914.809 892.856 914.841 892.692 914.921 892.538C914.991 892.385 915.1 892.251 915.227 892.147C915.364 892.043 915.52 891.978 915.684 891.952C915.849 891.926 916.013 891.938 916.176 891.99C920.321 893.366 924.879 895.342 929.86 897.936C933.293 899.725 936.779 902.252 940.31 905.517C946.469 911.216 951.971 916.466 956.796 921.258C967.091 931.464 976.196 944.391 985.576 956.044C996.862 970.059 1005.37 982.2 1016.03 996.475C1020.85 1002.94 1026.17 1010.43 1031.99 1018.95C1049.03 1043.9 1064.91 1067.8 1079.61 1090.65C1084.23 1097.81 1090.32 1107.99 1097.89 1121.16C1099.45 1123.87 1100.12 1126.27 1101.1 1128.9C1101.11 1128.98 1101.17 1129.05 1101.24 1129.09C1101.3 1129.14 1101.38 1129.15 1101.46 1129.13C1101.54 1129.12 1101.6 1129.06 1101.64 1128.99C1101.68 1128.92 1101.7 1128.84 1101.68 1128.76Z" stroke="#808080" stroke-width="5"/>
<path d="M1046.44 503.663C1046.47 503.626 1046.49 503.58 1046.51 503.532C1046.52 503.482 1046.51 503.432 1046.49 503.385C1046.47 503.339 1046.44 503.298 1046.4 503.267C1046.37 503.236 1046.32 503.216 1046.27 503.21C1044.76 503.001 1042.85 502.973 1040.56 503.126C1040.01 503.161 1039.46 503.146 1038.91 503.082C1023.52 501.325 1011.81 501.315 994.064 501.191C989.789 501.163 983.385 500.866 979.833 497.699C976.424 494.654 974.258 492.762 973.354 492.022C968.847 488.324 964.408 483.012 961.556 478.545C961.509 478.467 961.482 478.378 961.484 478.286C961.476 478.194 961.506 478.104 961.547 478.025C961.596 477.945 961.655 477.881 961.734 477.836C961.821 477.793 961.908 477.773 961.995 477.777C963.567 477.873 964.705 477.903 965.42 477.866C967.411 477.776 989.779 476.626 1032.54 474.415C1036.18 474.225 1039.54 472.892 1042.63 470.415C1046.39 467.411 1043.4 460.357 1041.79 456.808C1041.67 456.553 1041.49 456.338 1041.25 456.192C1041.01 456.044 1040.74 455.972 1040.47 455.982C1033.14 456.229 1026.02 456.869 1017.52 456.737C1012.27 456.655 1007.75 456.029 1003.94 454.858C998.926 453.32 994.948 451.819 992.002 450.357C988.51 448.615 987.016 446.973 983.701 444.548C975.434 438.505 970.17 428.231 967.978 418.346C964.609 403.209 964.667 388.042 968.124 372.844C968.155 372.725 968.147 372.597 968.101 372.483C968.055 372.368 967.97 372.27 967.875 372.205C967.77 372.139 967.645 372.107 967.529 372.115C967.403 372.122 967.287 372.168 967.198 372.246C961.639 376.882 954.782 381.276 948.814 386.591C941.021 393.536 934.581 399.882 929.485 405.629C920.839 415.367 911.259 429.694 907.802 442.843C905.891 450.117 904.884 456.524 904.773 462.06C904.736 464.015 905.156 466.907 906.051 470.735C908.957 483.237 915.13 496.537 924.703 504.532C933.221 511.645 944.12 516.86 955.799 518.465C962.25 519.349 966.528 519.775 968.633 519.743C974.871 519.647 978.588 519.599 979.776 519.599C990.326 519.624 1001.26 517.66 1010.68 515.462C1015.12 514.43 1020.48 512.857 1026.77 510.746C1031.97 509.001 1037.34 507.456 1042.86 506.108C1044.22 505.767 1045.42 504.953 1046.44 503.663Z" stroke="#808080" stroke-width="5"/>
<path d="M1051.01 371.16C1050.78 370.997 1050.51 370.905 1050.24 370.9C1049.97 370.895 1049.7 370.975 1049.47 371.129C1049.24 371.284 1049.07 371.507 1048.97 371.766C1048.87 372.025 1048.85 372.309 1048.92 372.581C1050.77 380.26 1055.01 386.742 1060.14 393.696C1061.72 395.829 1064.17 398.205 1067.5 400.826C1072.6 404.849 1075.94 407.595 1077.5 409.067C1081.29 412.634 1083.72 415.195 1084.79 416.751C1087.88 421.24 1090.59 426.468 1092.91 432.433C1094.36 436.221 1094.62 439.55 1095.73 444.338C1097.38 451.49 1096.86 459.633 1093.43 466.08C1091.13 470.381 1088.45 476.789 1085.53 482.055C1078.65 494.435 1074.64 502.624 1067.88 513.486C1066.06 516.41 1064.07 518.974 1061.92 521.178C1059.22 523.958 1055.35 528.953 1051.62 532.717C1049.41 534.963 1048.16 536.41 1047.88 537.054C1045.8 541.798 1045.01 546.225 1045.52 550.332C1046.54 558.672 1049.4 567.558 1054.08 576.993C1055.65 580.179 1057.22 582.647 1058.78 584.399C1059.71 585.443 1062.21 586.962 1066.29 588.958C1066.8 589.206 1067.37 589.278 1067.91 589.162C1072.6 588.182 1076.21 586.837 1078.74 585.126C1080.52 583.927 1083.42 581.44 1087.44 577.663C1088.48 576.687 1089.41 575.534 1090.21 574.206C1092.06 571.152 1094.75 567.878 1095.9 564.675C1097.27 560.849 1097.74 556.927 1097.32 552.908C1096.74 547.468 1095.51 541.857 1093.62 536.077C1091.49 529.598 1090.27 522.793 1089.46 517.26C1088.31 509.23 1089.06 500.803 1091.72 491.977C1092.48 489.408 1093.43 487.218 1094.55 485.407C1096.93 481.539 1100.34 475.814 1104.79 468.232C1105.32 467.337 1107.57 464.617 1111.56 460.071C1112.4 459.114 1114.26 456.207 1117.13 451.35C1118.84 448.474 1120.24 445.317 1121.33 441.88C1121.42 441.564 1123.5 435.736 1127.55 424.398C1131.58 413.081 1133.78 401.616 1134.14 390.001C1134.16 389.429 1133.78 386.344 1133.03 380.747C1132.6 377.599 1131.77 375.125 1130.54 373.326C1127.97 369.563 1124.5 366.676 1120.13 364.667C1118.4 363.865 1116.1 363.901 1115.26 365.738C1113.89 368.747 1112.83 371.749 1112.06 374.743C1111.74 375.941 1111.14 377.067 1110.25 378.121C1105.45 383.729 1099.41 386.612 1092.12 386.769C1087.37 386.88 1083.63 385.513 1078.81 384.576C1069 382.666 1059.05 377.016 1051.01 371.16Z" stroke="#808080" stroke-width="5"/>
<path d="M901.016 1097.02C901.041 1095.64 900.212 1093.49 900.019 1091.38C899.148 1082.1 898.28 1075.28 897.414 1070.94C897.061 1069.18 895.976 1064.67 894.17 1057.38C891.752 1047.71 888.196 1039.05 885.141 1029.88C883.742 1025.69 881.848 1021.06 879.461 1016.01C872.939 1002.21 866.509 987.639 858.553 973.114C853.277 963.506 844.931 947.102 837.371 934.65C823.544 911.882 816.349 900.018 815.779 899.038C810.174 889.413 806.164 884.928 799.29 875.571C794.281 868.74 789.748 863.207 785.69 858.963C778.848 851.798 772.57 844.177 764.534 836.97C756.45 829.73 748.965 822.338 740.072 816.453C734.782 812.95 729.772 808.649 725.987 806.25C710.228 796.241 692.524 786.13 673.062 777.511C656.628 770.243 643.125 764.935 632.552 761.588C612.695 755.302 589.499 748.942 562.963 742.511C553.338 740.18 542.382 736.287 535.177 734.497C532.825 733.909 530.93 733.162 529.494 732.258C524.925 729.386 521.894 727.822 522.249 722.457C522.438 719.574 522.853 716.611 523.493 713.568C523.67 712.71 523.957 711.88 524.344 711.097C527.343 705.003 529.769 698.888 533.896 691.602C537.286 685.601 542.387 679.844 545.918 674.416C549.412 669.038 553.748 664.332 557.998 658.31C561.893 652.782 566.691 647.494 570.869 643.151C571.14 642.872 571.314 642.509 571.362 642.118C571.411 641.727 571.332 641.33 571.14 640.988C571.096 640.918 570.578 640.027 569.585 638.317C564.251 629.18 554.335 611.764 539.838 586.067C535.572 578.501 534.132 574.08 534.138 566.219C534.14 564.241 534.17 559.119 534.229 550.852C534.297 540.505 536.496 530.407 538.117 519.622C538.134 519.509 538.116 519.392 538.063 519.29C538.011 519.189 537.928 519.106 537.825 519.056C537.724 519.006 537.608 518.991 537.498 519.013C537.387 519.035 537.287 519.094 537.212 519.179C536.38 520.081 535.726 520.677 535.246 520.965C532.065 522.845 528.311 525.215 523.987 528.076C520.819 530.175 517.411 533.002 513.762 536.559C500.717 549.256 490.171 561.296 482.126 572.68C473.299 585.169 463.409 601.151 452.456 620.625C448.088 628.379 443.434 638.4 440.03 645.913C437.144 652.263 434.144 657.466 431.359 664.065C429.445 668.593 426.073 674.062 424.337 678.344C414.712 702.172 407.051 722.41 401.352 739.055C395.503 756.11 388.731 778.108 381.035 805.048C378.018 815.617 372.424 837.825 364.254 871.671C362.003 880.994 360.309 889.27 359.173 896.5C357.64 906.263 356.533 914.647 355.853 921.653C353.949 941.268 354.345 961.294 357.039 981.751C358.367 991.79 360.67 999.298 363.391 1010.8C365.801 1020.95 369.523 1027.96 374.35 1039.33C376.02 1043.28 378.13 1047.31 380.68 1051.43C384.486 1057.58 388.517 1066.04 393.719 1072.24C396.322 1075.34 398.582 1078.16 400.497 1080.68C406.805 1088.98 413.745 1095.57 421.646 1103.8C425.848 1108.18 430.391 1111.27 434.89 1115.11C437.495 1117.33 440.883 1119.99 445.054 1123.08C457.191 1132.07 469.828 1140.27 482.964 1147.68C495.881 1154.97 508.624 1161.66 521.191 1167.77C526.195 1170.21 537.465 1176.11 555 1185.47C558.374 1187.27 560.885 1188.49 562.53 1189.14C566.326 1190.64 568.978 1191.53 570.484 1191.83C576.425 1193.02 583.82 1194.17 591.361 1194.3C608.599 1194.6 625.607 1193.22 643.595 1189.98C658.458 1187.31 672.881 1185.25 688.236 1181.83C705.026 1178.1 722.375 1174.63 739.99 1169.77C761.266 1163.91 785.286 1156.89 812.053 1148.74C825.595 1144.62 837.444 1140.21 850.731 1135.75C855.403 1134.18 861.527 1131.37 865.161 1130.09C869.106 1128.69 872.148 1125.5 872.284 1121.77C872.579 1114.18 871.522 1106.59 869.104 1099.01C865.098 1086.48 861.744 1079.43 855.021 1063.49C848.529 1048.09 841.23 1032.97 834.704 1018.88C829.404 1007.44 824.207 999.298 816.995 990.429C816.92 990.331 813.544 986.516 806.869 978.976C798.595 969.622 790.006 962.423 780.866 954.168C779.44 952.881 776.344 950.303 771.577 946.443C768.445 943.903 765.293 941.343 762.121 938.763C757.959 935.38 752.151 931.103 744.699 925.924C731.634 916.839 723.187 910.613 711.164 902.129C707.531 899.58 703.979 897.643 700.183 895.633C700.133 895.613 700.094 895.564 700.067 895.515C700.039 895.466 700.028 895.407 700.033 895.349C700.038 895.291 700.059 895.243 700.094 895.195C700.128 895.147 700.176 895.119 700.23 895.101C702.961 894.24 705.998 894.113 709.34 894.699C712.428 895.25 715.412 895.132 718.516 896.101C722.042 897.204 726.517 898.702 731.94 900.607C737.777 902.654 742.722 906.13 748.166 908.761C754.932 912.038 760.278 916.209 766.662 920.72C768.91 922.303 771.304 924.18 773.842 926.35C782.543 933.822 787.538 938.171 788.827 939.387C803.511 953.301 815.479 967.513 830.001 986.076C834.302 991.566 839.28 998.522 844.935 1006.95C854.452 1021.09 860.427 1029.47 867.993 1041.59C874.698 1052.27 881.036 1061.38 886.38 1071.49C888.236 1074.99 891.212 1080.62 895.316 1088.39C897.069 1091.72 899.15 1094.53 900.424 1097.15C900.452 1097.21 900.509 1097.27 900.576 1097.3C900.633 1097.33 900.71 1097.34 900.778 1097.32C900.846 1097.3 900.905 1097.26 900.954 1097.22C900.994 1097.16 901.014 1097.09 901.016 1097.02Z" stroke="#808080" stroke-width="5"/>
<path d="M1031.69 541.34C1031.7 541.293 1031.71 541.242 1031.69 541.195C1031.68 541.148 1031.65 541.104 1031.62 541.068C1031.58 541.033 1031.55 541.007 1031.5 540.993C1031.45 540.979 1031.4 540.977 1031.35 540.989C1018.65 543.85 1005.3 545.848 991.297 546.981C985.033 547.489 979.064 546.634 973.38 544.417C963.777 540.683 953.808 538.448 943.692 537.911C937.327 537.574 931.263 538.224 925.975 539.135C918.112 540.499 909.823 548.165 905.667 554.722C903.589 557.987 902.117 562.41 901.261 567.99C900.217 574.846 898.712 583.202 901.411 588.634C905.069 595.974 910.94 599.5 919.035 599.212C931.554 598.758 943.266 595.462 954.171 589.322C961.029 585.457 965.01 583.127 966.106 582.327C975.323 575.622 983.165 573.871 995.684 570.78C1005.16 568.452 1016.18 566.617 1025.81 564.571C1026.02 564.527 1026.22 564.42 1026.38 564.265C1026.52 564.11 1026.63 563.911 1026.69 563.695L1031.69 541.34Z" stroke="#808080" stroke-width="5"/>
<path d="M526.555 1198.91C526.542 1199.08 526.658 1199.25 526.877 1199.39C527.097 1199.53 527.403 1199.62 527.727 1199.66C528.051 1199.69 528.367 1199.64 528.606 1199.55C528.846 1199.45 528.988 1199.3 529.001 1199.13C529.014 1198.96 528.898 1198.79 528.679 1198.65C528.46 1198.51 528.153 1198.42 527.83 1198.38C527.505 1198.36 527.188 1198.39 526.95 1198.49C526.711 1198.59 526.569 1198.74 526.555 1198.91Z" stroke="#808080" stroke-width="5"/>
<path d="M688.714 137.855C688.919 138.563 689.686 139.618 689.925 140.582C690.608 143.267 691.43 147.265 692.391 152.576C695.695 170.746 698.046 184.393 699.445 193.517C701.101 204.32 702.266 216.858 702.942 231.131C703.271 237.976 702.399 243.137 700.924 250.006C700.385 252.517 698.863 254.743 696.359 256.684C694.818 257.878 692.845 258.454 690.441 258.411C684.701 258.303 679.426 256.93 674.617 254.294C672.64 253.213 668.573 249.807 662.417 244.077C654.668 236.859 646.982 229.571 639.364 222.214C636.418 219.362 633.752 217.144 631.365 215.558C624.48 210.995 619.96 207.756 612.052 204.086C605.905 201.235 597.874 198.474 587.959 195.8C582.653 194.368 574.712 193.662 570.639 193.442C567.201 193.259 562.823 193.425 557.507 193.94C554.484 194.234 551.366 194.991 548.154 196.21C541.853 198.6 535.98 200.267 531.78 204.473C528.385 207.879 525.873 210.509 524.243 212.367C523.436 213.284 522.067 215.891 520.139 220.186C519.664 221.243 518.25 224.617 515.898 230.307C514.522 233.621 513.533 237.126 512.928 240.822C511.504 249.521 510.78 255.282 510.754 258.104C510.713 262.233 511.474 267.296 513.036 273.295C513.793 276.236 514.372 278.704 516.179 281.262C516.241 281.351 516.282 281.454 516.3 281.562C516.316 281.67 516.308 281.781 516.276 281.885C516.244 281.989 516.189 282.084 516.115 282.162C516.04 282.24 515.948 282.301 515.847 282.337C512.514 283.552 509.465 285.187 506.697 287.24C506.087 287.688 505.43 288.063 504.736 288.357C501.547 289.699 498.791 291.129 496.468 292.646C494.797 293.744 492.967 294.696 490.979 295.502C487.897 296.757 483.9 299.818 480.475 301.209C478.223 302.115 476.053 303.638 473.744 304.872C433.919 326.17 412.554 336.974 380.375 355.446C377.397 357.16 362.183 365.786 334.731 381.324C322.946 387.999 313.505 394.22 303.081 400.727C296.109 405.067 289.203 410.282 283.232 415.052C283.148 415.117 283.085 415.204 283.048 415.305C283.012 415.405 283.003 415.514 283.024 415.62C283.045 415.725 283.095 415.824 283.167 415.905C283.239 415.985 283.332 416.044 283.434 416.075C285.015 416.539 286.656 416.701 288.357 416.56C292.224 416.244 304.284 415.12 324.536 413.185C326.376 413.01 327.912 412.762 329.145 412.441C331.63 411.795 333.112 411.473 333.59 411.475C333.722 411.475 333.85 411.523 333.952 411.61C334.052 411.697 334.12 411.816 334.144 411.949C334.168 412.081 334.144 412.217 334.078 412.332C334.012 412.448 333.908 412.537 333.784 412.582C332.187 413.162 330.333 414.15 328.693 415.562C225.86 504.32 125.774 590.84 28.4381 675.123C25.9091 677.312 24.4264 678.566 23.988 678.885C21.9223 680.399 20.0661 682.118 18.4205 684.04C18.384 684.08 18.34 684.113 18.2913 684.136C18.2426 684.158 18.1902 684.17 18.1362 684.172C18.083 684.173 18.0292 684.162 17.9794 684.142C17.9296 684.121 17.8838 684.09 17.8459 684.052L17.684 683.879C17.6698 683.866 17.6614 683.849 17.6589 683.83C17.6553 683.813 17.6595 683.795 17.6704 683.782C19.6193 681.169 21.3744 679.334 22.9743 676.231C41.481 640.297 62.4522 599.447 85.889 553.683C87.3722 550.781 89.0266 548.124 90.8502 545.712C90.967 545.56 91.0245 545.37 91.0136 545.177C91.0027 544.985 90.923 544.802 90.7895 544.663L90.6047 544.476C90.5668 544.437 90.523 544.407 90.4741 544.386C90.4243 544.366 90.3724 544.355 90.3193 544.356C90.2662 544.357 90.2138 544.369 90.1661 544.391C90.1184 544.414 90.0753 544.446 90.0398 544.486L88.0703 546.698C87.8435 546.956 87.5825 547.184 87.2941 547.378C85.4634 548.61 75.9137 555.237 58.6452 567.258C55.5491 569.418 53.9463 571.062 51.5318 573.163C51.4807 573.213 51.4126 573.241 51.3421 573.245C51.2706 573.248 51.2005 573.225 51.1444 573.18C51.0873 573.137 51.0479 573.073 51.0338 573.002C51.0187 572.931 51.0287 572.857 51.0627 572.794L52.2423 570.444C52.4368 570.052 52.5874 569.638 52.6928 569.207C55.762 556.329 57.8935 548.226 59.0854 544.898C61.1661 539.071 62.9507 533.965 64.4383 529.577C66.0308 524.886 67.9965 519.856 70.3352 514.485C75.5037 502.617 78.1401 496.545 78.2446 496.27C79.528 492.742 81.4157 488.848 83.9097 484.588C84.3244 483.877 86.3023 480.008 89.8426 472.981C96.5501 459.683 104.807 446.292 114.516 434.96C117.425 431.561 119.999 427.932 123.273 424.159C132.822 413.143 143.171 402.56 154.319 392.408C156.944 390.019 159.412 387.962 161.724 386.238C168.78 380.986 173.927 376.705 180.759 372.804C188.603 368.328 192.443 365.761 198.226 363.853C198.29 363.829 198.342 363.784 198.378 363.725C198.413 363.668 198.429 363.598 198.422 363.53C198.415 363.462 198.387 363.398 198.341 363.347C198.295 363.296 198.233 363.262 198.167 363.25C189.638 361.974 180.241 361.935 172.502 361.201C158.595 359.893 144.488 358.594 130.181 357.305C124.545 356.792 118.912 356.126 113.281 355.309C105.719 354.205 98.5468 353.552 90.7989 351.897C80.4864 349.707 74.6442 348.466 73.2721 348.174C66.8675 346.802 61.0257 344.491 54.5106 342.833C48.3328 341.253 43.6421 337.926 39.0911 334.036C39.0217 333.977 38.972 333.898 38.9476 333.81C38.9231 333.721 38.9258 333.627 38.9554 333.542C38.985 333.455 39.0395 333.379 39.1119 333.326C39.1844 333.272 39.2718 333.242 39.3616 333.24C48.9682 332.881 58.3612 330.449 67.9111 329.294C81.9948 327.577 91.756 325.388 107.392 322.909C114.252 321.828 121.507 320.445 129.16 318.76C163.899 311.121 191.701 304.527 212.565 298.976C232.657 293.632 251.84 287.409 270.113 280.31C276.959 277.644 286.102 273.668 297.544 268.379C306.403 264.281 313.728 260.254 319.519 256.299C328.152 250.401 334.805 245.305 339.479 241.014C342.231 238.493 348.07 232.239 357 222.257C358.964 220.066 360.656 217.858 362.075 215.634C365.116 210.876 367.167 208.551 367.612 205.484C367.638 205.302 367.621 205.115 367.56 204.942C367.5 204.768 367.399 204.612 367.266 204.486C367.133 204.361 366.972 204.27 366.798 204.222C366.623 204.173 366.44 204.17 366.263 204.209L359.095 205.783C359.044 205.795 358.999 205.814 358.959 205.837C352.716 209.013 346.46 212.122 340.191 215.163C337.279 216.578 331.392 220.253 322.53 226.188C319.822 227.997 315.59 229.909 309.837 231.924C303.514 234.128 295.246 236.539 285.033 239.158C272.596 242.35 247.462 249.252 229.58 253.546C199.927 260.659 183.123 264.675 179.167 265.594C176.659 266.178 174.039 266.517 171.304 266.611C171.195 266.618 171.086 266.585 170.999 266.518C170.912 266.451 170.851 266.355 170.827 266.246C170.804 266.137 170.821 266.024 170.873 265.927C170.925 265.83 171.01 265.755 171.113 265.717C173.405 264.747 175.324 263.735 176.866 262.682C182.191 259.067 198.488 247.699 225.758 228.581C235.922 221.451 245.147 214.796 253.433 208.62C270.217 196.112 279.317 189.286 280.731 188.143C287.284 182.872 292.064 178.635 295.072 175.434C295.139 175.363 295.187 175.277 295.212 175.182C295.237 175.088 295.237 174.988 295.214 174.893C295.19 174.797 295.143 174.709 295.077 174.637C295.011 174.565 294.928 174.511 294.836 174.48C293.659 174.058 292.414 173.797 291.103 173.699C278.095 172.728 264.461 169.867 250.941 165.377C235.472 160.245 224.473 156.282 217.941 153.487C217.001 153.087 212.561 150.784 204.619 146.578C200.105 144.192 196.507 141.983 193.823 139.951C189.177 136.44 183.172 133.146 178.857 128.641C170.266 119.672 165.341 111.207 165.086 99.3096C165.081 99.1146 165.121 98.9215 165.204 98.7456C165.286 98.5698 165.408 98.4169 165.56 98.2986C165.713 98.1812 165.89 98.1011 166.079 98.0669C166.268 98.0326 166.463 98.044 166.646 98.1007C168.281 98.5974 169.895 98.9988 171.488 99.3038C192.509 103.295 209.99 106.46 223.933 108.799C236.146 110.846 250.758 112.707 267.765 114.383C273.731 114.969 278.431 115.199 281.866 115.071C288.837 114.814 293.537 114.571 295.967 114.343C300.047 113.954 304.449 112.56 309.173 110.16C320.456 104.432 329.088 99.4042 339.797 95.1347C343.516 93.6548 354.18 89.2992 371.79 82.0677C384.15 76.9924 395.223 73.1087 406.618 68.8403C411.521 67.0035 416.204 65.3778 420.667 63.9613C436.796 58.8349 455.012 53.3026 475.316 47.3641C484.799 44.5889 493.832 42.2406 502.413 40.3182C520.063 36.3583 529.172 34.3343 529.74 34.246C539.845 32.7611 563.877 28.4839 581.689 27.1232C600.436 25.682 607.799 24.6172 624.277 24.8961C633.857 25.0601 641.781 25.135 648.048 25.119C650.061 25.11 652.381 25.2541 655.007 25.5521C675.317 27.8501 692.987 31.0789 708.016 35.2396C709.624 35.6835 713.71 37.0723 720.273 39.4068C724.722 40.9924 728.705 42.6904 732.222 44.5009C747.183 52.2065 761.065 61.1435 773.459 73.0639C778.755 78.158 783.544 83.8312 787.826 90.0834C793.65 98.5707 798.736 107.657 803.084 117.343C805.984 123.801 808.504 131.862 811.178 139.156C812.235 142.027 813.145 144.995 813.929 148.063C817.718 162.917 819.892 171.668 820.461 174.316C823.021 186.249 824.505 194.749 824.904 199.814C825.451 206.747 826.052 212.393 826.714 216.753C826.731 216.875 826.71 217 826.65 217.102C826.58 217.206 826.492 217.281 826.376 217.313L803.354 224.55C803.248 224.583 803.136 224.591 803.026 224.57C802.917 224.549 802.815 224.502 802.727 224.431C802.64 224.361 802.571 224.27 802.527 224.167C802.482 224.063 802.463 223.95 802.471 223.838C803.4 212.007 802.961 199.483 801.152 186.268C800.536 181.73 799.72 177.331 798.708 173.074C797.315 167.232 796.291 161.199 794.466 155.667C792.138 148.631 789.146 141.19 785.489 133.344C780.22 122.039 772.476 112.433 763.423 103.558C760.686 100.885 757.993 98.7167 755.342 97.0551C750.757 94.1971 747.722 91.7325 743.005 89.4246C734.392 85.2109 725.263 82.6346 715.618 81.6958C715.504 81.683 715.39 81.7042 715.289 81.7575C715.187 81.8109 715.104 81.8927 715.048 81.9954C714.992 82.0971 714.966 82.2139 714.973 82.3314C714.981 82.4488 715.021 82.563 715.09 82.6583C715.848 83.6845 716.422 84.7228 716.814 85.7732C719.896 94.032 723.848 105.626 728.671 120.554C730.863 127.361 732.208 134.669 732.706 142.479C732.888 145.336 732.896 147.191 732.728 148.043C732.61 148.617 732.316 149.136 731.887 149.525C731.458 149.912 730.918 150.147 730.347 150.196C728.542 150.349 726.925 150.056 725.497 149.318C714.374 143.556 702.236 139.59 689.083 137.419C689.027 137.411 688.97 137.416 688.918 137.437C688.865 137.457 688.818 137.49 688.782 137.534C688.744 137.577 688.719 137.629 688.707 137.686C688.696 137.742 688.698 137.8 688.714 137.855Z" fill="black"/>
<path d="M607.141 314.559C604.093 303.267 596.662 278.067 579.813 283.806C577.118 284.731 572.696 286.876 572.439 283.101C572.36 281.976 572.516 279.669 572.886 278.149C574.909 269.957 578.953 253.889 568.853 248.912C564.27 246.651 559.453 245.934 554.4 246.761C548.933 247.657 544.131 248.466 539.993 249.186C539.892 249.205 539.789 249.2 539.689 249.173C539.59 249.145 539.498 249.097 539.419 249.029C539.34 248.963 539.276 248.878 539.231 248.784C539.187 248.69 539.164 248.586 539.163 248.482C539.033 240.311 542.649 232.168 547.646 225.747C550.584 221.97 554.349 219.324 558.94 217.808C579.108 211.172 603.508 218.804 620.354 230.719C628.252 236.306 635.593 242.758 642.38 250.074C647.083 255.14 650.222 259.675 654.912 265.454C655.227 265.841 655.39 266.334 655.366 266.836C655.342 267.337 655.135 267.809 654.785 268.16L608.156 314.843C608.081 314.918 607.987 314.973 607.884 315C607.781 315.026 607.673 315.026 607.57 314.997C607.468 314.968 607.374 314.913 607.299 314.836C607.223 314.759 607.169 314.664 607.141 314.559Z" fill="black"/>
<path d="M545.866 384.468C538.369 394.257 534.345 399.533 533.798 400.298C533.602 400.576 530.414 404.767 524.236 412.869C515.595 424.206 507.554 434.728 500.115 444.433C492.514 454.349 484.66 465.003 476.549 476.396C465.071 492.511 457.057 503.713 452.507 510.006C447.919 516.342 444.137 521.828 441.16 526.466C437.103 532.798 433.409 538.344 430.076 543.104C428.566 545.256 426.089 549.853 422.645 556.896C420.428 561.419 418.293 566.191 416.24 571.213C400.782 609.028 387.792 640.909 377.265 666.861C377.182 667.064 377.181 667.293 377.262 667.498C377.343 667.703 377.498 667.868 377.696 667.958L377.729 667.971C377.93 668.062 378.156 668.075 378.365 668.008C378.574 667.941 378.751 667.799 378.863 667.607C387.369 653.098 394.074 641.775 398.978 633.639C410.152 615.089 421.62 597.589 433.381 581.141C436.44 576.863 440.269 570.309 443.547 565.826C444.179 564.973 451.708 554.289 466.135 533.773C473.033 523.965 479.503 515.388 485.543 508.042C490.935 501.479 497.678 493.128 505.774 482.987C510.071 477.602 515.529 471.523 520.354 465.854C522.22 463.667 524.244 461.448 526.425 459.196C534.587 450.774 539.704 445.661 541.777 443.855C549.623 437.031 555.352 431.974 558.961 428.684C561.508 426.359 564.413 424.348 567.985 421.422C568.117 421.315 568.285 421.266 568.455 421.287C568.623 421.308 568.779 421.395 568.888 421.532L569.151 421.871C569.269 422.021 569.324 422.213 569.304 422.404C569.284 422.595 569.191 422.769 569.044 422.89C567.784 423.934 566.512 425.304 565.228 427.001C561.58 431.84 556.753 437.216 547.175 448.555C536.168 461.598 524.223 477.083 515.024 488.47C503.896 502.232 486.41 527.444 478.591 537.981C472.929 545.597 468.445 552.132 465.139 557.589C459.661 566.651 454.182 573.931 447.935 584.228C432.24 610.103 421.861 627.46 416.799 636.297C412.465 643.866 407.081 654.381 400.647 667.839C399.342 670.575 394.902 680.095 387.329 696.398C383.812 703.951 381.179 710.168 379.427 715.047C377.14 721.403 374.79 727.748 372.377 734.082C368.579 744.063 365.888 755.024 362.778 765.542C360.543 773.1 358.737 780.535 357.361 787.846C355.57 797.377 353.013 807.514 351.708 817.968C348.36 844.939 344.417 870.516 342.623 897.22C341.434 914.919 340.723 928.478 340.491 937.886C340.221 948.865 340.603 964.935 341.64 986.088C341.977 992.871 342.695 999.68 343.795 1006.52C345.778 1018.86 346.913 1025.61 347.2 1026.77C350.745 1041.12 352.238 1049.42 356.231 1059.26C357.665 1062.81 359.055 1066.5 360.402 1070.34C363.17 1078.28 368.299 1086.6 371.456 1093.3C373.034 1096.66 375.409 1100.52 378.584 1104.88C384.788 1113.41 388.448 1119.25 394.912 1125.93C403.409 1134.72 407.329 1139.77 415.076 1145.36C420.088 1148.98 427.438 1155.86 434.574 1159.95C438.759 1162.37 445.693 1166.44 451.735 1170.21C456.457 1173.17 459.303 1174.84 460.274 1175.22C471.179 1179.51 484.858 1185.74 497.236 1189.71C508.253 1193.25 515.019 1195.44 517.534 1196.28C518.588 1196.63 520.074 1196.97 521.991 1197.29C522.532 1197.39 522.89 1197.59 523.065 1197.9C523.114 1197.98 523.139 1198.08 523.138 1198.18C523.137 1198.28 523.109 1198.37 523.059 1198.46C523.009 1198.55 522.937 1198.61 522.851 1198.66C522.765 1198.71 522.669 1198.72 522.572 1198.72C510.835 1198.07 501.973 1197.63 495.985 1197.4C475.307 1196.62 455.401 1193.69 434.343 1190.13C424.926 1188.54 416.958 1186.96 410.438 1185.42C400.161 1182.99 388.694 1181.05 378.877 1177.83C374.237 1176.3 366.72 1173.94 356.324 1170.75C349.715 1168.7 342.742 1166.14 335.408 1163.05C324.664 1158.51 317.786 1155.69 314.777 1154.56C310.841 1153.09 306.507 1151.08 301.777 1148.52C299.64 1147.36 295.282 1145.03 288.701 1141.56C283.309 1138.7 275.788 1134.35 266.136 1128.48C257.92 1123.48 251.133 1118.85 245.775 1114.61C238.81 1109.08 232.403 1103.86 226.557 1098.93C219.366 1092.87 212.198 1085.8 205.053 1077.7C198.092 1069.81 191.713 1062.02 185.917 1054.34C184.397 1052.33 180.691 1046.88 174.797 1037.99C170.157 1031.02 167.187 1024.14 163.17 1017.02C159.02 1009.64 155.342 1000.35 152.438 993.953C150.552 989.808 148.695 984.897 146.865 979.211C142.65 966.065 139.088 952.329 136.178 938.005C134.11 927.826 133.019 918.024 131.365 907.466C129.851 897.84 129.774 886.021 129.242 878.469C128.83 872.674 128.763 867.128 129.039 861.83C129.822 847.012 129.782 836.028 131.229 822.326C131.875 816.277 132.523 808.905 133.172 800.209C133.212 799.699 133.543 798.614 134.168 796.952C134.211 796.839 134.21 796.712 134.164 796.599C134.117 796.486 134.028 796.395 133.918 796.347L133.907 796.339C133.799 796.292 133.678 796.289 133.569 796.329C133.46 796.369 133.372 796.45 133.324 796.556C128.597 806.322 126.046 810.847 122.366 820.099C117.659 831.905 112.822 844.844 107.853 858.924C105.097 866.735 102.85 874.042 101.113 880.853C98.1875 892.316 95.4841 899.972 93.4976 910.521C92.5103 915.786 90.4724 926.141 87.3816 941.594C86.227 947.35 85.0301 955.704 83.7891 966.655C83.136 972.43 82.3631 985.629 81.4697 1006.24C81.2565 1011.25 81.2702 1016.62 81.511 1022.34C81.7499 1028.12 81.7317 1033.49 81.4563 1038.47C81.4543 1038.52 81.431 1038.58 81.3896 1038.63C81.3493 1038.67 81.2938 1038.69 81.2328 1038.7C81.1728 1038.71 81.1122 1038.7 81.0627 1038.66C81.0133 1038.62 80.9775 1038.57 80.9622 1038.51C79.0041 1031.27 76.6932 1026.1 72.3683 1016.45C70.7319 1012.81 69.0522 1008.32 67.3292 1002.98C62.9135 989.319 59.7234 979.274 57.7622 972.83C50.1919 948.036 47.0136 925.912 43.1459 894.285C42.4471 888.533 42.1606 883.303 42.2873 878.584C42.4869 871.385 41.9314 864.831 42.3939 857.559C43.2034 845.146 43.506 835.981 45.2405 824.652C46.054 819.388 46.5566 815.908 46.7472 814.213C47.7545 805.252 50.0055 797.419 51.9012 788.55C53.4025 781.586 55.2524 775.191 57.452 769.362C60.2706 761.894 62.9011 752.701 66.9769 744.484C72.3419 733.678 76.3622 724.756 81.8121 716.146C88.0983 706.214 95.292 693.716 102.13 684.568C107.342 677.607 112.48 669.268 118.985 660.82C137.304 637.003 156.285 614.214 176.977 592.802C182.242 587.358 191.246 577.868 203.992 564.335C218.241 549.197 235.458 533.199 250.038 518.799C259.902 509.056 270.366 499.288 281.43 489.495C296.85 475.838 308.699 464.955 324.459 451.75C339.661 439.008 360.419 421.938 386.734 400.54C387.048 400.279 387.259 400.007 387.368 399.723C387.393 399.656 387.402 399.582 387.394 399.509C387.386 399.436 387.361 399.367 387.32 399.306C387.28 399.246 387.226 399.196 387.163 399.162C387.099 399.127 387.029 399.108 386.956 399.107L348.704 398.471C348.632 398.47 348.564 398.447 348.509 398.408L347.913 397.929C347.791 397.829 347.695 397.699 347.636 397.552C347.576 397.404 347.555 397.243 347.574 397.085C347.593 396.928 347.651 396.777 347.744 396.649C347.836 396.521 347.958 396.419 348.1 396.353C349.933 395.505 366.48 385.966 397.741 367.737C418.741 355.495 437.798 345.692 459.9 333.844C469.321 328.791 478.496 324.591 487.853 320.081C494.356 316.941 502.524 314.46 507.754 312.326C508.775 311.91 510.134 310.69 510.994 310.547C511.07 310.534 511.147 310.539 511.221 310.56C511.296 310.58 511.365 310.617 511.423 310.667C511.482 310.718 511.529 310.78 511.562 310.849C511.594 310.918 511.611 310.994 511.61 311.072C511.616 311.09 515.448 320.108 523.108 338.124C525.278 343.244 527.924 347.952 529.43 353.523C529.47 353.675 529.458 353.837 529.397 353.983C529.336 354.128 529.228 354.249 529.091 354.326C526.469 355.789 523.584 359.486 519.686 363.952C509.721 375.378 502.744 384.288 494.929 393.629C490.009 399.5 485.824 405.1 482.374 410.43C480.931 412.66 479.227 415.08 477.267 417.689C470.621 426.525 463.681 439.051 461.12 443.051C456.558 450.185 452.805 458.817 449.219 465.595C444.888 473.784 441.959 483.578 439 493.137C438.158 495.848 437.128 497.837 435.95 500.43C435.925 500.486 435.922 500.549 435.94 500.605C435.957 500.663 435.995 500.711 436.046 500.74L436.072 500.764C436.13 500.796 436.197 500.807 436.261 500.793C436.325 500.778 436.383 500.741 436.421 500.687C438.799 497.299 440.479 495.088 441.464 494.052C486.148 446.895 513.215 418.294 522.666 408.248C527.23 403.403 532.194 397.747 537.556 391.279C537.944 390.813 538.377 390.385 538.852 390.004L545.787 384.387C545.799 384.38 545.811 384.378 545.825 384.379C545.837 384.381 545.849 384.386 545.858 384.396C545.868 384.406 545.873 384.418 545.875 384.431C545.877 384.444 545.873 384.457 545.866 384.468Z" fill="black"/>
<path d="M982.751 304.403C982.42 304.594 982.119 304.663 981.84 304.611C976.8 303.637 971.913 305.354 967.078 305.789C959.314 306.48 951.879 307.613 944.774 309.189C933.434 311.702 925.906 313.183 918.461 318.54C913.139 322.372 909.053 325.117 906.194 326.775C900.935 329.827 897.616 331.795 896.22 332.682C892.156 335.287 888.718 335.86 884.817 334.897C884.452 334.809 884.108 334.631 883.813 334.377C877.219 328.656 871.804 324.481 867.576 321.856C865.076 320.304 860.2 317.748 852.939 314.189C847.132 311.342 840.733 310.768 833.732 312.465C824.239 314.77 812.92 318.724 803.43 320.593C797.332 321.79 790.394 324.136 784.86 325.363C779.444 326.571 773.34 328.015 766.549 329.694C765.769 329.888 764.893 330.059 763.921 330.207C763.728 330.238 763.531 330.218 763.347 330.15C763.163 330.082 762.999 329.967 762.87 329.817C762.741 329.666 762.652 329.485 762.611 329.291C762.57 329.096 762.578 328.894 762.635 328.705C763.621 325.329 766.802 320.698 768.288 317.694C772.765 308.608 778.881 296.054 785.203 284.736C788.041 279.667 790.364 274.301 792.173 268.637C792.266 268.344 792.394 268.147 792.554 268.046C792.778 267.903 793.01 267.825 793.252 267.812C793.413 267.801 793.574 267.829 793.725 267.893C793.875 267.958 794.011 268.057 794.124 268.185C794.236 268.312 794.323 268.465 794.377 268.633C794.432 268.8 794.453 268.979 794.44 269.156C794.292 270.935 793.45 273.242 793.436 274.794C793.404 277.213 793.187 279.701 792.784 282.259C792.607 283.363 792.481 285.856 792.405 289.737C792.338 293.035 792.002 298.624 791.397 306.506C791.385 306.694 791.423 306.882 791.509 307.049C791.594 307.218 791.721 307.359 791.88 307.459C792.037 307.557 792.219 307.611 792.403 307.614C792.588 307.616 792.77 307.567 792.929 307.472C800.495 302.865 807.416 298.974 813.681 295.798C815.591 294.83 819.253 293.6 824.667 292.109C826.559 291.589 830.717 290.681 837.131 289.388C840.687 288.669 844.1 288.376 847.361 288.509C856.495 288.877 863.888 289.474 870.308 293.655C876.546 297.704 881.048 301.19 884.635 307.143C884.784 307.4 885.012 307.608 885.28 307.741C885.548 307.874 885.836 307.927 886.127 307.893C889.396 307.517 892.639 307.055 895.844 306.506C900.812 305.661 906.031 304.239 907.682 298.998C907.775 298.68 907.81 298.345 907.768 298.015C907.726 297.685 907.626 297.366 907.457 297.08C905.81 294.282 904.335 292.103 903.041 290.542C897.422 283.787 890.872 276.246 883.4 267.919C879.295 263.339 875.59 259.56 872.286 256.581C871.982 256.3 871.692 255.843 871.414 255.21C871.358 255.095 871.341 254.97 871.353 254.845C871.365 254.721 871.415 254.603 871.485 254.504C871.564 254.405 871.662 254.329 871.778 254.284C871.895 254.239 872.021 254.226 872.136 254.248C875.254 254.762 878.271 255.03 881.176 255.054C889.12 255.111 898.18 257.43 904.449 259.789C910.977 262.245 916.878 266.292 922.131 271.93C926.277 276.387 928.153 280.9 929.976 286.2C930.141 286.689 930.422 287.133 930.782 287.493C931.152 287.855 931.591 288.124 932.081 288.278C950.352 294.157 965.601 299.016 977.828 302.856C979.239 303.3 980.036 303.532 980.228 303.554C981.876 303.702 982.715 303.784 982.743 303.798C982.791 303.827 982.838 303.87 982.876 303.923C982.904 303.976 982.922 304.037 982.921 304.099C982.93 304.161 982.909 304.222 982.879 304.275C982.849 304.329 982.8 304.373 982.751 304.403Z" fill="black"/>
<path d="M564.622 338.666C566.092 339.379 567.112 340.033 567.683 340.628C572.787 345.965 575.961 349.141 577.206 350.154C582.402 354.399 586.613 358.161 592.392 358.209C592.509 358.209 592.625 358.236 592.731 358.286C592.837 358.337 592.931 358.41 593.006 358.501C593.082 358.592 593.138 358.699 593.169 358.814C593.199 358.928 593.205 359.048 593.185 359.165C593.073 359.916 592.811 360.626 592.4 361.296C587.585 369.153 581.945 377.22 575.478 385.496C572.475 389.322 569.543 394.074 566.974 397.236C566.733 397.526 566.574 397.687 566.497 397.719C566.353 397.773 566.199 397.79 566.047 397.772C565.895 397.754 565.749 397.699 565.621 397.612C565.492 397.526 565.386 397.41 565.311 397.275C565.234 397.138 565.19 396.987 565.183 396.832C565.118 395.578 565.078 392.773 565.062 388.415C565.02 377.028 564.785 361.592 564.358 342.104C564.335 341.046 563.827 339.512 563.925 339.022C563.939 338.946 563.969 338.875 564.014 338.813C564.06 338.752 564.119 338.702 564.186 338.668C564.253 338.634 564.328 338.616 564.403 338.615C564.479 338.615 564.553 338.631 564.622 338.666Z" fill="black"/>
<path d="M1101.68 1128.76C1101.7 1128.84 1101.68 1128.92 1101.64 1128.99C1101.6 1129.06 1101.54 1129.12 1101.46 1129.13C1101.38 1129.15 1101.3 1129.14 1101.24 1129.09C1101.17 1129.05 1101.11 1128.98 1101.1 1128.9C1100.12 1126.27 1099.45 1123.87 1097.89 1121.16C1090.32 1107.99 1084.23 1097.81 1079.61 1090.65C1064.91 1067.8 1049.03 1043.9 1031.99 1018.95C1026.17 1010.43 1020.85 1002.94 1016.03 996.475C1005.37 982.2 996.862 970.059 985.576 956.044C976.196 944.391 967.091 931.464 956.796 921.258C951.971 916.466 946.469 911.216 940.31 905.517C936.779 902.252 933.293 899.725 929.86 897.936C924.879 895.342 920.321 893.366 916.176 891.99C916.013 891.938 915.849 891.926 915.684 891.952C915.52 891.978 915.364 892.043 915.227 892.147C915.1 892.251 914.991 892.385 914.921 892.538C914.841 892.692 914.809 892.856 914.815 893.031C914.941 897.182 914.945 900.614 914.809 903.307C914.622 907.133 915.278 910.79 914.972 914.836C914.621 919.221 915.07 922.584 915.118 928.372C915.281 950.876 915.706 983.272 916.392 1025.55C916.464 1030.01 916.151 1034.42 916.975 1038.92C916.983 1039.02 916.971 1039.12 916.941 1039.2C916.901 1039.29 916.841 1039.36 916.763 1039.41C916.685 1039.46 916.588 1039.49 916.501 1039.49C916.405 1039.48 916.318 1039.45 916.242 1039.39C915.823 1039.09 915.446 1038.62 915.139 1037.98C912.534 1032.66 910.009 1027.21 907.564 1021.61C905.406 1016.68 903.22 1011.71 900.996 1006.68C894.687 992.352 887.196 978.253 880.791 964.978C877.806 958.796 873.007 950.02 866.363 938.67C853.44 916.569 846.815 905.248 846.487 904.699C831.302 879.143 814.171 854.404 795.094 830.5C791.593 826.12 788.783 822.782 786.665 820.488C779.188 812.406 773.25 805.277 764.912 797.248C757.088 789.704 752.577 785.373 751.379 784.253C746.114 779.328 742.481 776.941 734.444 770.974C730.6 768.11 726.695 765.586 722.728 763.401C714.113 758.641 708.581 755.621 706.129 754.341C700.198 751.235 692.597 748.551 683.327 746.29C668.701 742.714 646.152 738.226 628.936 733.503C613.545 729.277 600.885 725.461 590.954 722.055C587.034 720.709 582.96 718.589 578.731 715.693C575.556 713.507 571.342 711.102 572.857 707.332C574.376 703.558 577.004 700.8 580.737 699.059C592.346 693.648 604.366 689.048 616.795 685.262C618.776 684.66 619.686 683.343 619.529 681.309C618.576 669.009 618.643 653.756 619.727 635.553C620.309 625.837 622.472 615.353 623.467 607.184C624.082 602.163 625.04 597.374 626.34 592.817C630.553 578.019 632.942 569.669 633.506 567.767C634.76 563.532 635.8 560.525 636.626 558.745C638.816 554.047 641.043 547.567 643.905 542.165C645.648 538.861 646.919 536.306 647.719 534.5C652.089 524.66 658.091 514.916 665.724 505.269C670.469 499.279 674.188 494.825 676.881 491.906C679.447 489.119 683.986 484.655 690.497 478.516C694.25 474.975 697.696 472.127 700.837 469.974C705.574 466.728 710.122 462.88 715.307 460.16C715.436 460.089 715.54 459.977 715.6 459.841C715.66 459.705 715.673 459.553 715.638 459.409C715.329 458.199 714.556 456.64 714.257 455.428C706.456 423.862 701.933 405.582 700.685 400.586C700.679 400.56 700.673 400.535 700.667 400.51L699.24 396.874C699.213 396.816 699.196 396.753 699.192 396.689C699.188 396.624 699.196 396.559 699.216 396.498C699.237 396.438 699.27 396.381 699.311 396.332C699.354 396.285 699.405 396.245 699.461 396.217C699.519 396.189 699.581 396.172 699.643 396.168C699.707 396.164 699.771 396.173 699.831 396.195C699.891 396.216 699.947 396.249 699.994 396.292C700.042 396.335 700.081 396.387 700.109 396.445C700.734 397.498 701.455 398.294 702.271 398.833C724.254 413.32 745.044 426.764 764.642 439.164C764.782 439.252 764.902 439.369 764.996 439.505C765.09 439.642 765.156 439.796 765.191 439.96C765.224 440.122 765.225 440.291 765.193 440.453C765.161 440.617 765.096 440.771 765.003 440.907C764.389 441.8 763.345 442.364 762.51 443.412C756.936 450.339 749.985 459.181 741.658 469.938C737.587 475.193 734.053 480.102 731.057 484.663C723.891 495.544 718.097 503.723 713.949 515.351C710.334 525.509 707.284 532.487 708.2 541.708C709.478 554.565 710.312 565.985 712.702 577.147C713.313 580 714.147 582.836 715.203 585.659C718.337 594.027 722.327 601.503 727.169 608.088C729.097 610.714 731.025 612.758 732.951 614.222C741.417 620.64 749.657 626.456 760.573 628.738C769.231 630.537 775.236 631.593 778.589 631.906C803.037 634.172 815.854 635.367 817.029 635.49C821.721 635.973 827.382 635.726 831.536 636.11C837.944 636.69 845.722 634.762 851.53 633.324C857.795 631.777 862.813 628.745 866.603 624.23C872.15 617.612 873.853 608.497 873.468 599.6C873.285 595.365 873.258 591.617 873.405 588.355C873.408 588.191 873.469 588.034 873.568 587.904C873.657 587.774 873.794 587.677 873.95 587.626C874.095 587.575 874.259 587.573 874.413 587.619C874.567 587.665 874.7 587.757 874.804 587.885C880.428 594.869 886.98 601.806 894.469 608.697C898.142 612.077 902.518 614.509 906.839 617.311C913.745 621.796 921.504 624.519 930.107 625.479C935.444 626.063 940.672 625.215 945.514 623.847C945.602 623.824 945.689 623.821 945.775 623.837C945.852 623.854 945.938 623.889 946.005 623.941C946.071 623.993 946.128 624.06 946.175 624.137C946.212 624.213 946.24 624.299 946.238 624.386C946.429 629.199 946.949 635.009 947.779 641.816C948.619 648.597 949.953 654.232 951.801 658.722C954.83 666.108 959.014 672.714 964.331 678.537C966.167 680.545 968.258 682.293 970.596 683.784C973.477 685.615 976.242 688.007 979.535 690.031C998.233 701.49 1008.45 707.77 1010.19 708.875C1017.97 713.814 1022.49 706.012 1026.83 701.012C1027.38 700.371 1028.02 699.815 1028.74 699.362C1034.16 695.873 1040.72 694.44 1046.72 692.6C1052.96 690.69 1057.61 690.788 1065.97 690.195C1074.03 689.626 1084.39 690.334 1092.29 693.216C1100.18 696.084 1107.61 699.834 1114.6 704.467C1114.96 704.698 1115.2 705.057 1115.3 705.468C1116 708.36 1116.98 711.745 1118.23 715.625C1118.66 716.936 1118.84 720.298 1118.78 725.708C1118.77 725.939 1118.73 726.166 1118.63 726.375C1118.54 726.584 1118.41 726.771 1118.24 726.924C1116.68 728.346 1115.59 729.125 1114.97 729.262C1106.56 731.023 1098.96 734.08 1092.01 738.942C1087.38 742.183 1082.8 747.933 1079.33 751.136C1075.03 755.104 1068.57 755.834 1061.11 757.257C1055.75 758.289 1051.54 757.696 1046.44 757.72C1039.48 757.745 1032.68 755.854 1026.03 753.088C1025.14 752.719 1024.31 752.21 1023.57 751.582C1018.52 747.261 1013.03 743.261 1006.96 738.253C988.738 723.237 979.14 715.025 962.559 703.914C959.975 702.174 957.721 700.895 955.805 700.077C950.547 697.853 946.577 695.917 941.437 696.134C937.737 696.296 932.398 699.499 929.75 700.708C926.459 702.197 923.302 703.781 922.597 707.472C921.635 712.513 924.485 715.014 928.463 719.146C935.131 726.064 941.917 732.323 948.591 739.46C956.675 748.11 963.925 755.398 970.999 764.33C984.479 781.366 992.982 791.35 1002.9 806.301C1007.9 813.858 1013.99 823.011 1021.18 833.759C1024.75 839.107 1028.11 844.693 1031.24 850.52C1035.36 858.187 1039.85 865.813 1043.54 873.579C1048.6 884.24 1054.05 894.753 1058.51 905.607C1062.33 914.897 1064.51 920.173 1065.06 921.453C1067.55 927.2 1069.58 932.53 1071.14 937.474C1074.27 947.45 1079.83 962.25 1082.86 973.911C1085.61 984.607 1090.1 999.193 1091.91 1011.29C1092.77 1017 1093.89 1023.75 1095.27 1031.52C1096.68 1039.45 1097.7 1047.6 1098.36 1055.97C1098.56 1058.46 1099.35 1066.63 1100.75 1080.52C1101 1082.89 1101.13 1085.27 1101.15 1087.64C1101.23 1096.85 1101.4 1105.56 1101.66 1113.78C1101.84 1119.29 1100.92 1123.69 1101.68 1128.76Z" fill="black"/>
<path d="M1046.44 503.663C1045.42 504.953 1044.22 505.767 1042.86 506.108C1037.34 507.456 1031.97 509.001 1026.77 510.746C1020.48 512.857 1015.12 514.43 1010.68 515.462C1001.26 517.66 990.326 519.624 979.776 519.599C978.588 519.599 974.871 519.647 968.633 519.743C966.528 519.775 962.25 519.349 955.799 518.465C944.12 516.86 933.221 511.645 924.703 504.532C915.13 496.537 908.957 483.237 906.051 470.735C905.156 466.907 904.736 464.015 904.773 462.06C904.884 456.524 905.891 450.117 907.802 442.843C911.259 429.694 920.839 415.367 929.485 405.629C934.581 399.882 941.021 393.536 948.814 386.591C954.782 381.276 961.639 376.882 967.198 372.246C967.287 372.168 967.403 372.122 967.529 372.115C967.645 372.107 967.77 372.139 967.875 372.205C967.97 372.27 968.055 372.368 968.101 372.483C968.147 372.597 968.155 372.725 968.124 372.844C964.667 388.042 964.609 403.209 967.978 418.346C970.17 428.231 975.434 438.505 983.701 444.548C987.016 446.973 988.51 448.615 992.002 450.357C994.948 451.819 998.926 453.32 1003.94 454.858C1007.75 456.029 1012.27 456.655 1017.52 456.737C1026.02 456.869 1033.14 456.229 1040.47 455.982C1040.74 455.972 1041.01 456.044 1041.25 456.192C1041.49 456.338 1041.67 456.553 1041.79 456.808C1043.4 460.357 1046.39 467.411 1042.63 470.415C1039.54 472.892 1036.18 474.225 1032.54 474.415C989.779 476.626 967.411 477.776 965.42 477.866C964.705 477.903 963.567 477.873 961.995 477.777C961.908 477.773 961.821 477.793 961.734 477.836C961.655 477.881 961.596 477.945 961.547 478.025C961.506 478.104 961.476 478.194 961.484 478.286C961.482 478.378 961.509 478.467 961.556 478.545C964.408 483.011 968.847 488.324 973.354 492.022C974.258 492.762 976.424 494.654 979.833 497.699C983.385 500.866 989.789 501.163 994.064 501.191C1011.81 501.315 1023.52 501.325 1038.91 503.082C1039.46 503.146 1040.01 503.161 1040.56 503.126C1042.85 502.973 1044.76 503.001 1046.27 503.21C1046.32 503.216 1046.37 503.236 1046.4 503.267C1046.44 503.298 1046.47 503.339 1046.49 503.385C1046.51 503.432 1046.52 503.482 1046.51 503.532C1046.49 503.58 1046.47 503.626 1046.44 503.663Z" fill="black"/>
<path d="M1051.01 371.16C1059.05 377.016 1069 382.666 1078.81 384.576C1083.63 385.513 1087.37 386.88 1092.12 386.769C1099.41 386.612 1105.45 383.729 1110.25 378.121C1111.14 377.067 1111.74 375.941 1112.06 374.743C1112.83 371.749 1113.89 368.747 1115.26 365.738C1116.1 363.901 1118.4 363.865 1120.13 364.667C1124.5 366.676 1127.97 369.563 1130.54 373.326C1131.77 375.125 1132.6 377.599 1133.03 380.747C1133.78 386.344 1134.16 389.429 1134.14 390.001C1133.78 401.616 1131.58 413.081 1127.55 424.398C1123.5 435.736 1121.42 441.564 1121.33 441.88C1120.24 445.317 1118.84 448.474 1117.13 451.35C1114.26 456.206 1112.4 459.114 1111.56 460.071C1107.57 464.617 1105.32 467.337 1104.79 468.232C1100.34 475.814 1096.93 481.539 1094.55 485.407C1093.43 487.218 1092.48 489.408 1091.72 491.977C1089.06 500.803 1088.31 509.23 1089.46 517.26C1090.27 522.793 1091.49 529.598 1093.62 536.076C1095.51 541.857 1096.74 547.468 1097.32 552.908C1097.74 556.927 1097.27 560.849 1095.9 564.675C1094.75 567.878 1092.06 571.152 1090.21 574.206C1089.41 575.534 1088.48 576.687 1087.44 577.663C1083.42 581.44 1080.52 583.927 1078.74 585.126C1076.21 586.837 1072.6 588.182 1067.91 589.162C1067.37 589.278 1066.8 589.206 1066.29 588.958C1062.21 586.962 1059.71 585.443 1058.78 584.399C1057.22 582.647 1055.65 580.179 1054.08 576.993C1049.4 567.558 1046.55 558.672 1045.52 550.332C1045.01 546.225 1045.8 541.798 1047.88 537.054C1048.16 536.41 1049.41 534.963 1051.62 532.717C1055.35 528.953 1059.22 523.958 1061.92 521.178C1064.07 518.974 1066.06 516.41 1067.88 513.486C1074.64 502.624 1078.65 494.435 1085.53 482.055C1088.45 476.788 1091.13 470.38 1093.43 466.08C1096.86 459.633 1097.38 451.49 1095.73 444.338C1094.62 439.55 1094.36 436.221 1092.91 432.433C1090.59 426.468 1087.88 421.24 1084.79 416.751C1083.72 415.195 1081.29 412.634 1077.5 409.067C1075.94 407.595 1072.6 404.849 1067.5 400.826C1064.17 398.205 1061.72 395.828 1060.14 393.696C1055.01 386.742 1050.77 380.26 1048.92 372.581C1048.85 372.309 1048.87 372.025 1048.97 371.766C1049.07 371.507 1049.24 371.284 1049.47 371.129C1049.7 370.975 1049.97 370.894 1050.24 370.9C1050.51 370.905 1050.78 370.997 1051.01 371.16Z" fill="black"/>
<path d="M901.015 1097.02C901.014 1097.09 900.994 1097.16 900.954 1097.22C900.905 1097.26 900.846 1097.3 900.778 1097.32C900.71 1097.34 900.633 1097.33 900.576 1097.3C900.509 1097.27 900.452 1097.21 900.424 1097.15C899.15 1094.53 897.069 1091.72 895.316 1088.39C891.212 1080.62 888.236 1074.99 886.39 1071.49C881.036 1061.38 874.698 1052.27 867.993 1041.59C860.427 1029.47 854.452 1021.09 844.935 1006.95C839.28 998.522 834.302 991.566 830.001 986.076C815.479 967.513 803.511 953.301 788.827 939.387C787.538 938.171 782.543 933.822 773.842 926.35C771.304 924.18 768.911 922.303 766.662 920.72C760.277 916.209 754.932 912.038 748.166 908.761C742.722 906.13 737.777 902.654 731.94 900.607C726.517 898.702 722.042 897.204 718.516 896.101C715.412 895.132 712.428 895.25 709.34 894.699C705.998 894.113 702.962 894.24 700.23 895.101C700.176 895.119 700.129 895.147 700.094 895.195C700.059 895.243 700.038 895.291 700.033 895.349C700.028 895.407 700.039 895.466 700.067 895.515C700.094 895.564 700.134 895.613 700.183 895.633C703.979 897.643 707.531 899.58 711.164 902.129C723.187 910.613 731.635 916.839 744.699 925.924C752.151 931.103 757.959 935.38 762.121 938.763C765.293 941.343 768.445 943.903 771.577 946.443C776.343 950.303 779.44 952.881 780.866 954.168C790.005 962.423 798.595 969.622 806.869 978.976C813.544 986.516 816.92 990.331 816.995 990.429C824.207 999.298 829.404 1007.44 834.704 1018.88C841.23 1032.97 848.529 1048.09 855.02 1063.49C861.744 1079.43 865.098 1086.48 869.104 1099.01C871.522 1106.59 872.579 1114.18 872.294 1121.77C872.148 1125.5 869.106 1128.69 865.161 1130.09C861.527 1131.37 855.403 1134.18 850.731 1135.75C837.444 1140.21 825.595 1144.62 812.053 1148.74C785.286 1156.89 761.266 1163.91 739.99 1169.77C722.375 1174.63 705.026 1178.1 688.237 1181.83C672.881 1185.25 658.457 1187.31 643.595 1189.98C625.607 1193.22 608.6 1194.6 591.361 1194.3C583.82 1194.17 576.425 1193.02 570.484 1191.83C568.978 1191.53 566.326 1190.64 562.531 1189.14C560.885 1188.49 558.375 1187.27 555 1185.47C537.465 1176.11 526.195 1170.21 521.191 1167.77C508.624 1161.66 495.882 1154.97 482.964 1147.68C469.828 1140.27 457.191 1132.07 445.054 1123.08C440.883 1119.99 437.495 1117.33 434.89 1115.11C430.391 1111.27 425.848 1108.18 421.646 1103.8C413.745 1095.57 406.805 1088.98 400.497 1080.68C398.581 1078.16 396.323 1075.34 393.718 1072.24C388.517 1066.04 384.487 1057.58 380.679 1051.43C378.131 1047.31 376.021 1043.28 374.35 1039.33C369.523 1027.96 365.801 1020.95 363.391 1010.8C360.669 999.298 358.367 991.79 357.04 981.751C354.345 961.294 353.949 941.268 355.853 921.653C356.533 914.647 357.64 906.263 359.173 896.5C360.309 889.27 362.003 880.994 364.254 871.671C372.425 837.826 378.018 815.617 381.035 805.048C388.731 778.108 395.503 756.11 401.352 739.055C407.051 722.41 414.712 702.172 424.337 678.344C426.073 674.062 429.445 668.593 431.359 664.065C434.144 657.466 437.144 652.263 440.03 645.913C443.434 638.4 448.088 628.379 452.456 620.625C463.409 601.151 473.299 585.169 482.125 572.68C490.171 561.296 500.717 549.256 513.762 536.559C517.411 533.003 520.819 530.175 523.987 528.076C528.312 525.215 532.065 522.845 535.246 520.965C535.726 520.677 536.38 520.081 537.212 519.179C537.287 519.094 537.387 519.035 537.498 519.013C537.608 518.991 537.724 519.006 537.825 519.056C537.927 519.106 538.011 519.189 538.064 519.29C538.116 519.392 538.134 519.509 538.117 519.622C536.496 530.407 534.297 540.505 534.229 550.852C534.17 559.119 534.14 564.241 534.138 566.219C534.132 574.08 535.572 578.501 539.838 586.067C554.335 611.764 564.251 629.18 569.585 638.317C570.578 640.027 571.096 640.918 571.14 640.988C571.333 641.331 571.411 641.727 571.362 642.118C571.314 642.509 571.14 642.872 570.869 643.151C566.691 647.494 561.892 652.782 557.998 658.31C553.748 664.332 549.412 669.038 545.918 674.416C542.387 679.844 537.286 685.601 533.896 691.602C529.769 698.888 527.343 705.003 524.345 711.098C523.957 711.88 523.67 712.71 523.493 713.568C522.853 716.611 522.438 719.574 522.249 722.457C521.894 727.822 524.926 729.386 529.494 732.258C530.93 733.162 532.825 733.909 535.177 734.497C542.382 736.287 553.338 740.18 562.963 742.511C589.499 748.942 612.695 755.302 632.553 761.588C643.125 764.935 656.628 770.243 673.062 777.511C692.524 786.13 710.228 796.241 725.987 806.25C729.772 808.649 734.782 812.95 740.073 816.453C748.966 822.338 756.45 829.73 764.534 836.97C772.569 844.177 778.848 851.798 785.69 858.963C789.748 863.207 794.281 868.74 799.29 875.571C806.164 884.928 810.174 889.413 815.779 899.038C816.349 900.018 823.544 911.882 837.371 934.65C844.931 947.102 853.277 963.506 858.553 973.114C866.509 987.639 872.939 1002.21 879.461 1016.01C881.848 1021.06 883.742 1025.69 885.141 1029.88C888.196 1039.05 891.752 1047.71 894.17 1057.38C895.976 1064.67 897.06 1069.18 897.414 1070.94C898.28 1075.28 899.148 1082.1 900.019 1091.38C900.212 1093.49 901.041 1095.64 901.015 1097.02Z" fill="black"/>
<path d="M1031.69 541.34L1026.69 563.695C1026.63 563.911 1026.52 564.11 1026.38 564.265C1026.22 564.42 1026.02 564.527 1025.81 564.571C1016.18 566.617 1005.16 568.452 995.684 570.78C983.165 573.871 975.323 575.622 966.106 582.327C965.01 583.127 961.029 585.458 954.171 589.322C943.266 595.462 931.554 598.758 919.035 599.212C910.94 599.5 905.069 595.974 901.411 588.634C898.712 583.202 900.217 574.846 901.261 567.99C902.117 562.41 903.589 557.987 905.667 554.722C909.823 548.165 918.112 540.499 925.975 539.135C931.263 538.224 937.327 537.574 943.692 537.911C953.808 538.448 963.777 540.683 973.38 544.417C979.064 546.634 985.033 547.489 991.297 546.981C1005.3 545.848 1018.65 543.85 1031.35 540.989C1031.4 540.977 1031.45 540.979 1031.5 540.993C1031.55 541.007 1031.58 541.033 1031.62 541.068C1031.65 541.104 1031.68 541.148 1031.69 541.195C1031.71 541.242 1031.7 541.293 1031.69 541.34Z" fill="black"/>
<path d="M527.83 1198.38C527.154 1198.32 526.584 1198.56 526.555 1198.91C526.528 1199.26 527.051 1199.6 527.727 1199.66C528.402 1199.72 528.972 1199.48 529.001 1199.13C529.029 1198.78 528.504 1198.44 527.83 1198.38Z" fill="black"/>
</g>
<defs>
<clipPath id="clip0_415_122">
<rect width="1152.69" height="1197.39" fill="white" transform="matrix(0.99981 0.0194862 -0.0176641 0.999844 21.1509 0)"/>
</clipPath>
</defs>
</svg>
